<?xml version="1.0" encoding="utf-8"?>
<!-- Generator: Adobe Illustrator 22.0.1, SVG Export Plug-In . SVG Version: 6.00 Build 0)  -->
<svg class="desktop" version="1.1" baseProfile="tiny" id="Layer_1" xmlns="http://www.w3.org/2000/svg" xmlns:xlink="http://www.w3.org/1999/xlink"
	 x="0px" y="0px" viewBox="0 0 1600 1200" xml:space="preserve">
<polyline fill="none" stroke="#FFFFFF" stroke-width="2.3537" stroke-miterlimit="10" points="383.4,973.2 573.2,820.8 746.2,718.3 
	898.3,637 1034.4,509 1184.2,626.8 1600,815.3 "/>
<g>
	<g>
		<circle fill="#FFFFFF" cx="383.4" cy="973.2" r="18.2"/>
		<circle fill="none" cx="383.4" cy="973.2" r="46.6"/>
	</g>
	<g>
		<path fill="#FFFFFF" d="M365.4,1144.3c2.2-2,4.3-5.5,4.3-9.3c0-4.4-3.4-8.7-8.5-8.7c-5.4,0-8.3,4.5-8.3,9.2v2.4l-1.5,0.6
			l-11.3-9.7c-0.9-0.7-1.6-1.5-1.6-1.5h-0.1c0,0,0.1,0.9,0.1,2.7v14.2h-2v-19.8h1.5l12.9,11.2c0-4.2,2.1-11.4,10.2-11.4
			c5.9,0,10.6,5,10.6,11c0,4-1.9,8-4.8,10.8L365.4,1144.3z"/>
		<path fill="#FFFFFF" d="M365.4,1116.4c2-1.3,4.3-3.8,4.3-8c0-5.4-3.9-9.6-9-9.6c-5.2,0-9.1,4.2-9.1,9.6c0,2.3,0.8,4.9,2.1,6.7
			l-0.5,1.6l-16.5-2v-16.1h2v14.2l10.3,1.2c1.3,0.1,2.1,0.3,2.1,0.3v-0.1c-0.7-1.1-1.6-3.6-1.6-5.9c0-6.6,5-11.8,11.2-11.8
			s11.1,5.3,11.1,11.8c0,3.9-1.8,7.6-5,9.7L365.4,1116.4z"/>
		<path fill="#FFFFFF" d="M369.3,1090.9c-12,0-13.4-18.4-23.9-18.4c-4.2,0-7.4,3.1-7.4,8.1c0,3.5,2,6.6,4.9,8.4l-1.1,1.6
			c-3.4-1.9-5.9-5.8-5.9-10c0-6.8,4.5-10.2,9.5-10.2c11.8,0,13.3,18.4,23.7,18.4v-18.9h2v21.1
			C370.5,1090.8,369.9,1090.9,369.3,1090.9z"/>
		<path fill="#FFFFFF" d="M346.4,1048.7v-2l16.4-8.4c1.6-0.8,3.6-1.7,3.6-1.7v-0.1c0,0-2-0.8-3.6-1.7l-16.4-8.4v-2l24.7-2v2.1
			L354,1026c-1.2,0.1-4.3,0.1-4.3,0.1v0.1c0,0,1.4,0.5,3.6,1.6l15.1,7.8v2.1l-15,7.8c-2,1-3.7,1.6-3.7,1.6v0.1c0,0,3.1,0,4.3,0.1
			l17.2,1.4v2.1L346.4,1048.7z"/>
		<line fill="none" stroke="#FFFFFF" stroke-width="1.7653" stroke-miterlimit="10" x1="383.4" y1="973.2" x2="383.4" y2="1202"/>
	</g>
	<g>
		<path fill="#FFFFFF" d="M187.2,956c2.4,0,5,0.8,6.7,2.6l-1.3,1.9c-1.3-1.3-3.3-2.3-5.3-2.3c-4,0-7.1,3-7.1,7.4
			c0,4.3,3.1,7.3,7.2,7.3c2.1,0,4.4-0.9,5.8-2.5l1.1,1.9c-1.6,1.8-4.3,2.9-7.1,2.9c-5.4,0-9.6-3.9-9.6-9.6
			C177.6,960,181.9,956,187.2,956z"/>
		<path fill="#FFFFFF" d="M198.3,971.7h3v3h-3V971.7z"/>
		<path fill="#FFFFFF" d="M215.8,972.5c3.9-5.2,4.3-12.4,4.3-18.3v-5h14v23.3h2.9v7.3h-2.4v-5.1h-19v5.1h-2.4v-7.3H215.8z
			 M231.6,972.5v-21h-9.1v2.8c0,6.2-0.6,13.4-4,18.2H231.6z"/>
		<path fill="#FFFFFF" d="M241,949.2h2.7v3.1H241V949.2z M241.1,956.4h2.5v18.3h-2.5V956.4z"/>
		<path fill="#FFFFFF" d="M247.3,972.6c3.1-0.5,4.4-3.9,4.4-10.7v-5.5h11.2v18.3h-2.5v-16.1H254v3.4c0,8.6-2.1,12.5-6.8,12.9V972.6z
			"/>
		<path fill="#FFFFFF" d="M277.1,956c5.3,0,9.7,4.1,9.7,9.5c0,5.5-4.3,9.7-9.7,9.7c-5.3,0-9.6-4.1-9.6-9.7
			C267.5,960.1,271.8,956,277.1,956z M277.1,972.9c3.9,0,7.1-3.1,7.1-7.4c0-4.1-3.2-7.3-7.1-7.3c-3.9,0-7.1,3.1-7.1,7.3
			C270.1,969.8,273.2,972.9,277.1,972.9z"/>
		<path fill="#FFFFFF" d="M291.4,956.4h6.6c3.7,0,6,1.6,6,4.7c0,1.9-1,3.4-2.8,4v0.1c2.4,0.5,3.7,2.3,3.7,4.4c0,3.2-2.5,5.1-6.6,5.1
			h-7V956.4z M297.8,964.4c2.5,0,3.7-1.2,3.7-3.1s-1.3-2.9-3.9-2.9h-3.7v6H297.8z M298.1,972.8c3,0,4.4-1.3,4.4-3.2
			c0-2.1-1.6-3.3-4.4-3.3h-4.1v6.5H298.1z"/>
		<path fill="#FFFFFF" d="M317.5,956c5.1,0,7.6,3.9,7.6,8.4c0,0.4,0,0.8-0.1,1.2h-14c0.1,4.7,3.3,7.2,7.1,7.2c2,0,4.1-0.8,5.6-2.2
			l1.1,1.9c-1.7,1.6-4.4,2.5-6.8,2.5c-5.4,0-9.6-3.9-9.6-9.6C308.5,959.6,312.6,956,317.5,956z M322.6,963.7
			c-0.1-3.8-2.5-5.7-5.2-5.7c-3.1,0-5.7,2-6.3,5.7H322.6z"/>
	</g>
</g>
<g>
	<g>
		<circle fill="#FFFFFF" cx="573.2" cy="820.8" r="18.2"/>
		<circle fill="none" cx="573.2" cy="820.8" r="46.6"/>
	</g>
	<g>
		<path fill="#FFFFFF" d="M553,1022v-7.1h-25.4c-0.8,0-1.6,0-1.6,0v0.1c0,0,0.6,0.3,1.9,1.6l3.7,3.7l-1.3,1.3l-6.8-6.7v-1.9H553
			v-6.9h1.8v15.9H553z"/>
		<path fill="#FFFFFF" d="M539.2,1001.4c-9,0-16.1-2.6-16.1-10.5c0-7.9,7.1-10.5,16.1-10.5c9,0,16.1,2.6,16.1,10.5
			C555.3,998.8,548.2,1001.4,539.2,1001.4z M539.2,982.4c-8,0-14.2,1.9-14.2,8.5c0,6.6,6.2,8.5,14.2,8.5c8.1,0,14.2-1.9,14.2-8.5
			C553.4,984.2,547.3,982.4,539.2,982.4z"/>
		<path fill="#FFFFFF" d="M549.6,973.1c1.8-1.2,3.8-3.4,3.8-7.2c0-4.8-3.5-8.6-8.1-8.6c-4.7,0-8.2,3.8-8.2,8.6c0,2,0.7,4.4,1.9,6
			l-0.5,1.4l-14.8-1.8v-14.5h1.8v12.8l9.3,1.1c1.2,0.1,1.9,0.3,1.9,0.3v-0.1c-0.7-1-1.4-3.2-1.4-5.3c0-6,4.5-10.6,10.1-10.6
			s10,4.8,10,10.6c0,3.5-1.6,6.8-4.5,8.8L549.6,973.1z"/>
		<path fill="#FFFFFF" d="M539.2,949.7c-9,0-16.1-2.6-16.1-10.5c0-7.9,7.1-10.5,16.1-10.5c9,0,16.1,2.6,16.1,10.5
			C555.3,947.1,548.2,949.7,539.2,949.7z M539.2,930.7c-8,0-14.2,1.9-14.2,8.5c0,6.6,6.2,8.5,14.2,8.5c8.1,0,14.2-1.9,14.2-8.5
			C553.4,932.6,547.3,930.7,539.2,930.7z"/>
		<path fill="#FFFFFF" d="M532.5,909.7v-1.8l14.7-7.5c1.4-0.7,3.2-1.5,3.2-1.5v-0.1c0,0-1.8-0.8-3.2-1.5l-14.7-7.6v-1.8l22.2-1.8
			v1.9l-15.4,1.2c-1.1,0.1-3.8,0-3.8,0v0.1c0,0,1.2,0.4,3.2,1.5l13.6,7v1.9l-13.5,7c-1.8,0.9-3.3,1.5-3.3,1.5v0.1c0,0,2.8,0,3.8,0
			l15.4,1.2v1.9L532.5,909.7z"/>
		<line fill="none" stroke="#FFFFFF" stroke-width="1.7653" stroke-miterlimit="10" x1="573.2" y1="820.8" x2="573.1" y2="1202"/>
	</g>
	<g>
		<path fill="#FFFFFF" d="M262.7,812.2c0.4-0.7,0.7-1.1,0.7-1.1v-0.1c-3.5-1-5.2-3.7-5.2-7.2c0-3.1,1.6-5.4,3.8-6.4
			c1.1-0.5,2.3-0.7,4.7-0.7h7.5v25.5h-2.5v-10.8h-5.7l-6.4,10.8h-2.9L262.7,812.2z M271.6,809.3V799h-4.8c-1.9,0-2.8,0.2-3.5,0.5
			c-1.6,0.8-2.5,2.4-2.5,4.4c0,3.2,1.9,5.4,5,5.4H271.6z"/>
		<path fill="#FFFFFF" d="M278.3,820.2c3.1-0.5,4.4-3.9,4.4-10.7V804h11.2v18.3h-2.5v-16.1h-6.3v3.4c0,8.6-2.1,12.5-6.8,12.9V820.2z
			"/>
		<path fill="#FFFFFF" d="M299.8,804h2.4v12c0,1.1-0.1,2.7-0.1,2.7h0.1c0.1-0.1,1.2-1.7,1.9-2.7l9-12h2.4v18.3h-2.4v-12
			c0-1.1,0.1-2.5,0.1-2.7H313c0,0.2-1.2,1.6-1.9,2.7l-9,12h-2.4V804z"/>
		<path fill="#FFFFFF" d="M321.3,804h2.5v7.8h10.7V804h2.5v18.3h-2.5V814h-10.7v8.3h-2.5V804z"/>
		<path fill="#FFFFFF" d="M351.1,803.6c2.4,0,5,0.8,6.7,2.6l-1.3,1.9c-1.3-1.3-3.3-2.3-5.3-2.3c-4,0-7.1,3-7.1,7.4
			c0,4.3,3.1,7.3,7.2,7.3c2.1,0,4.4-0.9,5.8-2.5l1.1,1.9c-1.6,1.8-4.3,2.9-7.1,2.9c-5.4,0-9.6-3.9-9.6-9.6
			C341.5,807.5,345.7,803.6,351.1,803.6z"/>
		<path fill="#FFFFFF" d="M362.5,804h2.5v7h4c3.3,0,6.4,1.4,6.4,5.7c0,3.3-2.1,5.6-6.5,5.6h-6.4V804z M368.6,820.3
			c2.9,0,4.1-1.5,4.1-3.7c0-2.2-1.2-3.7-4.1-3.7h-3.7v7.4H368.6z"/>
		<path fill="#FFFFFF" d="M379.5,804h2.5v7.7h2.9l5.5-7.7h2.9l-6.4,8.7v0.1l7.1,9.5h-3l-6.1-8.4h-2.9v8.4h-2.5V804z"/>
		<path fill="#FFFFFF" d="M397.4,804h2.4v12c0,1.1-0.1,2.7-0.1,2.7h0.1c0.1-0.1,1.2-1.7,1.9-2.7l9-12h2.4v18.3h-2.4v-12
			c0-1.1,0.1-2.5,0.1-2.7h-0.1c0,0.2-1.2,1.6-1.9,2.7l-9,12h-2.4V804z"/>
		<path fill="#FFFFFF" d="M418.9,804h2.4v12c0,1.1-0.1,2.7-0.1,2.7h0.1c0.1-0.1,1.2-1.7,1.9-2.7l9-12h2.4v18.3h-2.4v-12
			c0-1.1,0.1-2.5,0.1-2.7h-0.1c0,0.2-1.2,1.6-1.9,2.7l-9,12h-2.4V804z M421.9,797.3v-0.6h2.1v0.5c0,1.6,1.3,2.5,2.7,2.5
			c1.3,0,2.7-0.9,2.7-2.5v-0.5h2.1v0.6c0,2.7-2.3,4.3-4.8,4.3S421.9,800,421.9,797.3z"/>
		<path fill="#FFFFFF" d="M449.5,804h6.6c3.7,0,6,1.6,6,4.7c0,1.9-1,3.4-2.8,4v0.1c2.4,0.5,3.7,2.3,3.7,4.4c0,3.2-2.5,5.1-6.6,5.1
			h-7V804z M455.8,811.9c2.5,0,3.7-1.2,3.7-3.1s-1.3-2.9-3.9-2.9h-3.7v6H455.8z M456.1,820.3c3,0,4.4-1.3,4.4-3.2
			c0-2.1-1.6-3.3-4.4-3.3h-4.1v6.5H456.1z"/>
		<path fill="#FFFFFF" d="M467.4,820.2c3.1-4,3.2-10.7,3.2-13.2v-3h11.3v16.2h2.6v6.5h-2.4v-4.4h-14.6v4.4h-2.4v-6.5H467.4z
			 M479.5,820.2v-14.1h-6.4v1.1c0,2.7-0.3,8.9-3,13H479.5z"/>
		<path fill="#FFFFFF" d="M496.6,803.6c2.4,0,5,0.8,6.7,2.6l-1.3,1.9c-1.3-1.3-3.3-2.3-5.3-2.3c-4,0-7.1,3-7.1,7.4
			c0,4.3,3.1,7.3,7.2,7.3c2.1,0,4.4-0.9,5.8-2.5l1.1,1.9c-1.6,1.8-4.3,2.9-7.1,2.9c-5.4,0-9.6-3.9-9.6-9.6
			C487.1,807.5,491.3,803.6,496.6,803.6z"/>
		<path fill="#FFFFFF" d="M508,804h15.3v18.3h-2.5v-16.1h-10.4v16.1H508V804z"/>
		<path fill="#FFFFFF" d="M528.9,819.3h3v3h-3V819.3z"/>
	</g>
</g>
<g>
	<g>
		<circle fill="#FFFFFF" cx="746.2" cy="718.3" r="12.7"/>
		<circle fill="none" cx="746.2" cy="718.3" r="46.6"/>
	</g>
	<g>
		<path fill="#FFFFFF" d="M729,917.8v-7.4h-26.5c-0.8,0-1.6,0-1.6,0v0.1c0,0,0.6,0.3,2,1.7l3.9,3.9l-1.4,1.4l-7.1-7v-2H729v-7.2h1.9
			v16.6H729z"/>
		<path fill="#FFFFFF" d="M720.2,898.6l-21.9-16.9v-1.9h21.4v-4.8h1.9v4.8h9.3v2h-9.3v16.8H720.2z M719.7,881.8h-15.3
			c-1.3,0-2.9-0.1-2.9-0.1v0.1c0,0,1.2,0.8,2.2,1.6l15.9,12.4h0.1V881.8z"/>
		<path fill="#FFFFFF" d="M714.6,869.6c-9.4,0-16.9-2.7-16.9-11c0-8.3,7.5-11,16.9-11c9.5,0,16.9,2.7,16.9,11
			C731.5,866.9,724.1,869.6,714.6,869.6z M714.6,849.7c-8.4,0-14.9,2-14.9,8.9c0,6.9,6.5,8.9,14.9,8.9c8.4,0,14.9-2,14.9-8.9
			C729.5,851.6,723,849.7,714.6,849.7z"/>
		<path fill="#FFFFFF" d="M714.6,841.1c-9.4,0-16.9-2.7-16.9-11c0-8.3,7.5-11,16.9-11c9.5,0,16.9,2.7,16.9,11
			C731.5,838.4,724.1,841.1,714.6,841.1z M714.6,821.2c-8.4,0-14.9,2-14.9,8.9c0,6.9,6.5,8.9,14.9,8.9c8.4,0,14.9-2,14.9-8.9
			C729.5,823.1,723,821.2,714.6,821.2z"/>
		<path fill="#FFFFFF" d="M707.6,799.1v-1.9l15.4-7.9c1.5-0.7,3.4-1.6,3.4-1.6v-0.1c0,0-1.9-0.8-3.4-1.6l-15.4-7.9v-1.9l23.3-1.9v2
			l-16.2,1.3c-1.1,0.1-4,0-4,0v0.1c0,0,1.3,0.5,3.4,1.5l14.3,7.3v2l-14.2,7.3c-1.9,1-3.4,1.5-3.4,1.5v0.1c0,0,2.9,0,4,0l16.2,1.3v2
			L707.6,799.1z"/>
		<line fill="none" stroke="#FFFFFF" stroke-width="1.7653" stroke-miterlimit="10" x1="746.2" y1="718.3" x2="746.2" y2="1202"/>
	</g>
	<g>
		<path fill="#FFFFFF" d="M474.5,707.7h12.6v15.1h-2v-13.3h-8.5v13.3h-2V707.7z"/>
		<path fill="#FFFFFF" d="M498.9,707.3c4.4,0,8,3.4,8,7.8c0,4.6-3.6,8-8,8c-4.4,0-7.9-3.4-7.9-8C491,710.7,494.5,707.3,498.9,707.3z
			 M498.9,721.2c3.2,0,5.9-2.6,5.9-6.1c0-3.4-2.6-6-5.9-6c-3.2,0-5.8,2.6-5.8,6C493.1,718.7,495.7,721.2,498.9,721.2z"/>
		<path fill="#FFFFFF" d="M508.5,721c2.5-0.4,3.6-3.2,3.6-8.8v-4.6h9.2v15.1h-2v-13.3h-5.2v2.8c0,7.1-1.7,10.3-5.6,10.6V721z"/>
		<path fill="#FFFFFF" d="M526,720.3h2.5v2.5H526V720.3z"/>
		<path fill="#FFFFFF" d="M541.2,701.7h11.9v1.9h-9.9v6.9h5c3.5,0,6.2,2.1,6.2,6.2c0,3.7-2.5,6.1-6.1,6.1h-7.3V701.7z M548.2,720.9
			c2.6,0,4.2-1.6,4.2-4.3c0-2.7-1.7-4.3-4.3-4.3h-4.9v8.6H548.2z"/>
		<path fill="#FFFFFF" d="M566.3,713.4h0.9V713c0-2.9-1.6-3.9-3.7-3.9c-1.5,0-3.1,0.5-4.3,1.4l-0.9-1.6c1.2-1,3.3-1.7,5.3-1.7
			c3.6,0,5.6,2,5.6,5.8v9.7h-1.9V721c0-0.8,0.1-1.3,0.1-1.3h-0.1c-0.8,1.8-2.7,3.4-5.1,3.4c-2.5,0-5.1-1.5-5.1-4.4
			C557.1,713.7,563.4,713.4,566.3,713.4z M562.6,721.4c2.9,0,4.6-3,4.6-5.6v-0.7h-0.9c-2.3,0-7.1,0.1-7.1,3.4
			C559.2,719.9,560.3,721.4,562.6,721.4z"/>
		<path fill="#FFFFFF" d="M574,707.7h2v1.6c0,0.7-0.1,1.2-0.1,1.2h0.1c0.9-2,2.9-3.1,5.2-3.1c4.1,0,6.6,3.2,6.6,7.9
			c0,4.8-2.8,7.9-6.7,7.9c-2.1,0-4-1.1-5-3h-0.1c0,0,0.1,0.5,0.1,1.3v7.3h-2V707.7z M580.7,721.3c2.7,0,4.9-2.2,4.9-6.1
			c0-3.7-2-6.1-4.8-6.1c-2.5,0-4.9,1.8-4.9,6.1C575.9,718.3,577.6,721.3,580.7,721.3z"/>
		<path fill="#FFFFFF" d="M589.5,721c2.5-0.4,3.6-3.2,3.6-8.8v-4.6h9.2v15.1h-2v-13.3h-5.2v2.8c0,7.1-1.7,10.3-5.6,10.6V721z"/>
		<path fill="#FFFFFF" d="M613.7,707.3c4.2,0,6.3,3.2,6.3,7c0,0.3,0,0.7-0.1,1h-11.6c0.1,3.8,2.7,6,5.8,6c1.7,0,3.4-0.7,4.6-1.8
			l0.9,1.6c-1.4,1.3-3.6,2.1-5.6,2.1c-4.5,0-7.9-3.2-7.9-7.9C606.2,710.3,609.6,707.3,613.7,707.3z M617.9,713.7
			c-0.1-3.1-2-4.7-4.3-4.7c-2.5,0-4.7,1.7-5.2,4.7H617.9z"/>
		<path fill="#FFFFFF" d="M629.4,703.5l5.6-2.6l0.8,1.7l-5.8,2.7c-3.4,1.6-4.6,3.8-4.8,7h0.1c1.3-2.4,3.4-3.2,5.6-3.2
			c3.7,0,6.4,2.6,6.4,7c0,4.2-2.8,7.1-6.9,7.1c-4.9,0-7.1-3.8-7.1-8.9C623.2,709.1,624.4,705.8,629.4,703.5z M630.2,721.3
			c2.7,0,4.8-2,4.8-5.2c0-3.3-2.2-5.3-4.7-5.3c-2.9,0-4.9,2.3-4.9,5.2C625.4,719.4,627.6,721.3,630.2,721.3z"/>
		<path fill="#FFFFFF" d="M649,713.4h0.9V713c0-2.9-1.6-3.9-3.7-3.9c-1.5,0-3.1,0.5-4.3,1.4l-0.9-1.6c1.2-1,3.3-1.7,5.3-1.7
			c3.6,0,5.6,2,5.6,5.8v9.7h-2V721c0-0.8,0.1-1.3,0.1-1.3H650c-0.8,1.8-2.7,3.4-5.1,3.4c-2.6,0-5.1-1.5-5.1-4.4
			C639.8,713.7,646.1,713.4,649,713.4z M645.3,721.4c2.9,0,4.6-3,4.6-5.6v-0.7H649c-2.3,0-7.1,0.1-7.1,3.4
			C641.9,719.9,643,721.4,645.3,721.4z"/>
		<path fill="#FFFFFF" d="M656.6,707.7h2v13.3h6.5v-13.3h2v13.3h6.4v-13.3h2v15.1h-18.9V707.7z"/>
		<path fill="#FFFFFF" d="M680.4,707.7h2v6.4h2.4l4.5-6.4h2.4l-5.2,7.2v0.1l5.8,7.9h-2.5l-5-6.9h-2.4v6.9h-2V707.7z"/>
		<path fill="#FFFFFF" d="M702.9,713.4h0.9V713c0-2.9-1.6-3.9-3.7-3.9c-1.5,0-3.1,0.5-4.3,1.4l-0.9-1.6c1.2-1,3.3-1.7,5.3-1.7
			c3.6,0,5.6,2,5.6,5.8v9.7h-2V721c0-0.8,0.1-1.3,0.1-1.3h-0.1c-0.8,1.8-2.7,3.4-5.1,3.4c-2.6,0-5.1-1.5-5.1-4.4
			C693.7,713.7,700,713.4,702.9,713.4z M699.2,721.4c2.9,0,4.6-3,4.6-5.6v-0.7h-0.9c-2.3,0-7.1,0.1-7.1,3.4
			C695.8,719.9,696.9,721.4,699.2,721.4z"/>
	</g>
</g>
<g>
	<g>
		<circle fill="#FFFFFF" cx="898.3" cy="637" r="18.2"/>
		<circle fill="none" cx="898.3" cy="637" r="46.6"/>
	</g>
	<g>
		<path fill="#FFFFFF" d="M885.2,824.6v-7.2h-25.7c-0.8,0-1.6,0-1.6,0v0.1c0,0,0.6,0.3,1.9,1.7l3.7,3.7l-1.3,1.4l-6.9-6.8v-1.9h29.8
			v-7h1.8v16.1H885.2z"/>
		<path fill="#FFFFFF" d="M881.7,802.6c1.8-1.2,3.9-3.5,3.9-7.3c0-4.9-3.5-8.8-8.3-8.8c-4.8,0-8.3,3.8-8.3,8.8
			c0,2.1,0.7,4.5,1.9,6.1l-0.5,1.4l-15-1.8v-14.7h1.8v12.9l9.4,1.1c1.2,0.1,1.9,0.3,1.9,0.3v-0.1c-0.7-1-1.4-3.2-1.4-5.4
			c0-6,4.6-10.8,10.2-10.8c5.7,0,10.2,4.8,10.2,10.8c0,3.6-1.7,6.9-4.6,8.9L881.7,802.6z"/>
		<path fill="#FFFFFF" d="M871.2,778.9c-9.1,0-16.3-2.6-16.3-10.6c0-8,7.2-10.6,16.3-10.6c9.2,0,16.3,2.6,16.3,10.6
			C887.5,776.3,880.3,778.9,871.2,778.9z M871.2,759.6c-8.1,0-14.4,1.9-14.4,8.6s6.3,8.6,14.4,8.6c8.2,0,14.4-1.9,14.4-8.6
			S879.3,759.6,871.2,759.6z"/>
		<path fill="#FFFFFF" d="M871.2,751.3c-9.1,0-16.3-2.6-16.3-10.6c0-8,7.2-10.6,16.3-10.6c9.2,0,16.3,2.6,16.3,10.6
			C887.5,748.6,880.3,751.3,871.2,751.3z M871.2,732c-8.1,0-14.4,1.9-14.4,8.6s6.3,8.6,14.4,8.6c8.2,0,14.4-1.9,14.4-8.6
			S879.3,732,871.2,732z"/>
		<path fill="#FFFFFF" d="M864.4,710.6v-1.8l14.9-7.6c1.4-0.7,3.3-1.5,3.3-1.5v-0.1c0,0-1.8-0.8-3.3-1.5l-14.9-7.7v-1.8l22.6-1.8
			v1.9l-15.7,1.3c-1.1,0.1-3.9,0-3.9,0v0.1c0,0,1.3,0.5,3.2,1.5l13.8,7.1v1.9l-13.7,7.1c-1.8,0.9-3.3,1.5-3.3,1.5v0.1
			c0,0,2.8,0,3.9,0l15.7,1.3v1.9L864.4,710.6z"/>
		<line fill="none" stroke="#FFFFFF" stroke-width="1.7653" stroke-miterlimit="10" x1="898.3" y1="637" x2="898.3" y2="1202"/>
	</g>
	<g>
		<path fill="#FFFFFF" d="M637.3,601.2h15.3v18.3h-2.5v-16.1h-10.4v16.1h-2.5V601.2z"/>
		<path fill="#FFFFFF" d="M666.8,600.8c5.3,0,9.7,4.1,9.7,9.5c0,5.5-4.3,9.7-9.7,9.7s-9.6-4.1-9.6-9.7
			C657.2,604.9,661.5,600.8,666.8,600.8z M666.8,617.7c3.9,0,7.1-3.1,7.1-7.4c0-4.1-3.2-7.3-7.1-7.3c-3.9,0-7.1,3.1-7.1,7.3
			C659.8,614.6,662.9,617.7,666.8,617.7z"/>
		<path fill="#FFFFFF" d="M678.4,617.4c3.1-0.5,4.4-3.9,4.4-10.7v-5.5H694v18.3h-2.5v-16.1h-6.3v3.4c0,8.6-2.1,12.5-6.8,12.9V617.4z
			"/>
		<path fill="#FFFFFF" d="M699.7,616.5h3v3h-3V616.5z"/>
		<path fill="#FFFFFF" d="M720.9,599.1V594h14v25.5h-2.5v-23.3h-9v2.9c0,12.1-1.5,20.1-8.5,20.6v-2.4
			C719.6,616.8,720.9,610,720.9,599.1z"/>
		<path fill="#FFFFFF" d="M741.2,601.2h2.4v12c0,1.1-0.1,2.7-0.1,2.7h0.1c0.1-0.1,1.2-1.7,1.9-2.7l9-12h2.4v18.3h-2.4v-12
			c0-1.1,0.1-2.5,0.1-2.7h-0.1c0,0.2-1.2,1.6-1.9,2.7l-9,12h-2.4V601.2z"/>
		<path fill="#FFFFFF" d="M771.1,600.8c2.4,0,5.1,0.8,6.7,2.6l-1.3,1.9c-1.3-1.3-3.3-2.3-5.3-2.3c-4,0-7.1,3-7.1,7.4
			c0,4.3,3.1,7.3,7.2,7.3c2.1,0,4.4-0.9,5.8-2.5l1.1,1.9c-1.6,1.8-4.3,2.9-7.1,2.9c-5.4,0-9.6-3.9-9.6-9.6
			C761.5,604.8,765.7,600.8,771.1,600.8z"/>
		<path fill="#FFFFFF" d="M784.9,613.2c0.4-0.6,0.8-1.1,0.8-1.1v-0.1c-2.1-0.4-4.2-2.3-4.2-5.3c0-3.7,2.7-5.6,6.5-5.6h6.4v18.3H792
			v-7h-3.8l-4.8,7h-2.9L784.9,613.2z M792,610.6v-7.4h-3.5c-2.7,0-4.4,1.1-4.4,3.7c0,2.5,1.9,3.8,4.2,3.8H792z"/>
		<path fill="#FFFFFF" d="M799.2,607.1v-5.8h2.4v5.6c0,1.9,0.6,3.8,4.1,3.8c2,0,3.7-0.9,4.5-1.5v-7.9h2.5v18.3h-2.5v-6.9
			c0-0.5,0.1-1.2,0.1-1.2h-0.1c-1.2,0.8-3.3,1.4-5,1.4C801,612.8,799.2,610.6,799.2,607.1z"/>
		<path fill="#FFFFFF" d="M828.1,608.3h1.1v-0.5c0-3.5-1.9-4.7-4.5-4.7c-1.9,0-3.7,0.7-5.2,1.7l-1.1-1.9c1.5-1.2,4-2.1,6.5-2.1
			c4.4,0,6.8,2.4,6.8,7v11.7h-2.4v-2.1c0-0.9,0.1-1.5,0.1-1.5h-0.1c-0.9,2.2-3.2,4.1-6.2,4.1c-3.1,0-6.2-1.8-6.2-5.3
			C817,608.6,824.7,608.3,828.1,608.3z M823.6,617.9c3.5,0,5.6-3.6,5.6-6.8v-0.8h-1.1c-2.8,0-8.6,0.1-8.6,4.2
			C819.5,616.1,820.9,617.9,823.6,617.9z"/>
	</g>
</g>
<g>
	<g>
		<circle fill="#FFFFFF" cx="1034.4" cy="509" r="18.2"/>
		<circle fill="none" cx="1034.4" cy="509" r="46.6"/>
	</g>
	<g>
		<path fill="#FFFFFF" d="M1020.2,777.3v-7.8h-28.1c-0.9,0-1.7,0-1.7,0v0.1c0,0,0.6,0.3,2.1,1.8l4.1,4.1l-1.4,1.5l-7.5-7.4v-2.1
			h32.5v-7.6h2v17.6H1020.2z"/>
		<path fill="#FFFFFF" d="M1019.4,752.2c0.6-1,1.2-3.1,1.2-5.1c0-8-8.3-12-15.9-12.5v0.1c2.9,1.9,4.7,5.7,4.7,9.8
			c0,6.1-4.3,10.6-11,10.6c-7.5,0-11.5-4.9-11.5-10.6c0-7.6,7.3-12.1,16.1-12.1c8.4,0,19.6,4.2,19.6,14.8c0,2-0.4,4.1-1.4,6
			L1019.4,752.2z M1000.6,734.7c-4.8,0-11.5,3.7-11.5,9.6c0,5.3,3.9,8.4,9.4,8.4c5.5,0,8.9-3.5,8.9-8.5
			C1007.5,739,1003.7,734.7,1000.6,734.7z"/>
		<path fill="#FFFFFF" d="M1016.4,724.8c2.2-2,4.3-5.5,4.3-9.3c0-4.4-3.4-8.6-8.5-8.6c-5.4,0-8.2,4.5-8.2,9.2v2.4l-1.5,0.6
			l-11.3-9.7c-0.9-0.7-1.6-1.5-1.6-1.5h-0.1c0,0,0.1,0.9,0.1,2.7v14.1h-2V705h1.5l12.9,11.1c0-4.1,2.1-11.4,10.2-11.4
			c5.9,0,10.5,5,10.5,10.9c0,4-1.9,8-4.8,10.7L1016.4,724.8z"/>
		<path fill="#FFFFFF" d="M987.1,683.6c0-2.1,0.4-4.1,1.4-6.1l1.9,1c-0.8,1.4-1.2,3.4-1.2,5.2c0,7.9,8.3,11.9,15.9,12.4V696
			c-2.9-1.9-4.7-5.7-4.7-9.8c0-6.1,4.2-10.6,11.1-10.6c7.2,0,11.3,4.9,11.3,10.6c0,7.6-7.3,12.1-16.1,12.1
			C998.2,698.4,987.1,694.2,987.1,683.6z M1011.3,677.9c-5.6,0-9,3.5-9,8.5c0,4.8,3.1,9.6,7.3,9.6c3.4,0,11-3.1,11-9.9
			C1020.7,681.1,1016.7,677.9,1011.3,677.9z"/>
		<path fill="#FFFFFF" d="M997.5,655.2v-2l16.3-8.3c1.6-0.8,3.6-1.7,3.6-1.7v-0.1c0,0-2-0.8-3.6-1.7l-16.3-8.4v-2l24.6-2v2.1
			l-17.1,1.4c-1.2,0.1-4.2,0-4.2,0v0.1c0,0,1.4,0.5,3.5,1.6l15.1,7.7v2.1l-15,7.7c-2,1-3.6,1.6-3.6,1.6v0.1c0,0,3.1-0.1,4.2,0
			l17.1,1.4v2.1L997.5,655.2z"/>
		<line fill="none" stroke="#FFFFFF" stroke-width="1.7653" stroke-miterlimit="10" x1="1034.4" y1="509" x2="1034.4" y2="1202"/>
	</g>
	<g>
		<path fill="#FFFFFF" d="M796.6,492.1h12.8v2.5h-9.9v19h-2.9V492.1z"/>
		<path fill="#FFFFFF" d="M811.1,510.1h3.5v3.5h-3.5V510.1z"/>
		<path fill="#FFFFFF" d="M832.7,483.6h22.9v30.1h-2.9v-27.4h-17v27.4h-3V483.6z"/>
		<path fill="#FFFFFF" d="M863.1,483.6h3.2v3.6h-3.2V483.6z M863.2,492.1h2.9v21.5h-2.9V492.1z"/>
		<path fill="#FFFFFF" d="M873.1,492.1h18v21.5h-2.9v-18.9H876v18.9h-2.9V492.1z"/>
		<path fill="#FFFFFF" d="M897.7,500.2h12.1v2.7h-12.1V500.2z"/>
		<path fill="#FFFFFF" d="M917.3,483.6h2.9v30.1h-2.9V483.6z"/>
		<path fill="#FFFFFF" d="M927.8,492.1h7.8c4.4,0,7.1,1.9,7.1,5.5c0,2.2-1.2,4-3.2,4.7v0.1c2.8,0.6,4.4,2.7,4.4,5.2
			c0,3.7-2.9,6-7.8,6h-8.2V492.1z M935.3,501.5c2.9,0,4.4-1.4,4.4-3.7c0-2.3-1.5-3.4-4.6-3.4h-4.4v7.1H935.3z M935.6,511.4
			c3.5,0,5.2-1.5,5.2-3.8c0-2.5-1.9-3.9-5.2-3.9h-4.9v7.7H935.6z"/>
		<path fill="#FFFFFF" d="M960.5,500.4h1.3v-0.6c0-4.1-2.3-5.6-5.3-5.6c-2.2,0-4.4,0.8-6.1,2.1l-1.3-2.2c1.7-1.5,4.7-2.4,7.6-2.4
			c5.2,0,8,2.9,8,8.3v13.8h-2.8v-2.5c0-1.1,0.1-1.8,0.1-1.8h-0.1c-1.1,2.6-3.8,4.8-7.3,4.8c-3.6,0-7.3-2.1-7.3-6.3
			C947.4,500.8,956.4,500.4,960.5,500.4z M955.2,511.7c4.1,0,6.6-4.3,6.6-8v-1h-1.2c-3.3,0-10.2,0.1-10.2,4.9
			C950.4,509.6,952,511.7,955.2,511.7z"/>
		<path fill="#FFFFFF" d="M971.4,492.1h2.9v9.2h12.6v-9.2h2.9v21.5h-2.9v-9.7h-12.6v9.7h-2.9V492.1z"/>
	</g>
</g>
<g>
	<g>
		<circle fill="#FFFFFF" cx="1184.2" cy="626.8" r="12.7"/>
		<circle fill="none" cx="1184.2" cy="626.8" r="46.6"/>
	</g>
	<g>
		<path fill="#FFFFFF" d="M1170.5,811.2V804h-25.7c-0.8,0-1.6,0-1.6,0v0.1c0,0,0.6,0.3,1.9,1.7l3.7,3.7l-1.3,1.4l-6.9-6.8v-1.9h29.7
			v-7h1.8v16.1H1170.5z"/>
		<path fill="#FFFFFF" d="M1140.3,777.4c0-1.9,0.4-3.8,1.3-5.5l1.8,0.9c-0.7,1.3-1.1,3.1-1.1,4.7c0,7.2,7.6,10.9,14.5,11.4v-0.1
			c-2.7-1.8-4.3-5.2-4.3-8.9c0-5.5,3.8-9.7,10.2-9.7c6.6,0,10.4,4.5,10.4,9.7c0,7-6.7,11-14.7,11
			C1150.4,790.9,1140.3,787,1140.3,777.4z M1162.4,772.2c-5.1,0-8.2,3.2-8.2,7.8c0,4.4,2.8,8.7,6.7,8.7c3.1,0,10-2.8,10-9.1
			C1171,775.1,1167.4,772.2,1162.4,772.2z"/>
		<path fill="#FFFFFF" d="M1156.6,764.4c-9.1,0-16.3-2.6-16.3-10.6c0-8,7.2-10.6,16.3-10.6c9.1,0,16.3,2.6,16.3,10.6
			C1172.9,761.8,1165.7,764.4,1156.6,764.4z M1156.6,745.2c-8.1,0-14.4,1.9-14.4,8.6c0,6.7,6.3,8.6,14.4,8.6
			c8.2,0,14.4-1.9,14.4-8.6C1171,747.1,1164.7,745.2,1156.6,745.2z"/>
		<path fill="#FFFFFF" d="M1156.6,736.8c-9.1,0-16.3-2.6-16.3-10.6c0-8,7.2-10.6,16.3-10.6c9.1,0,16.3,2.6,16.3,10.6
			C1172.9,734.2,1165.7,736.8,1156.6,736.8z M1156.6,717.6c-8.1,0-14.4,1.9-14.4,8.6c0,6.7,6.3,8.6,14.4,8.6
			c8.2,0,14.4-1.9,14.4-8.6C1171,719.5,1164.7,717.6,1156.6,717.6z"/>
		<path fill="#FFFFFF" d="M1149.8,696.2v-1.8l14.9-7.6c1.4-0.7,3.3-1.5,3.3-1.5v-0.1c0,0-1.8-0.8-3.3-1.5l-14.9-7.7v-1.8l22.5-1.8
			v1.9l-15.6,1.3c-1.1,0.1-3.9,0-3.9,0v0.1c0,0,1.3,0.5,3.2,1.5l13.8,7.1v1.9l-13.7,7.1c-1.8,0.9-3.3,1.5-3.3,1.5v0.1
			c0,0,2.8,0,3.9,0l15.6,1.3v1.9L1149.8,696.2z"/>
		<line fill="none" stroke="#FFFFFF" stroke-width="1.7653" stroke-miterlimit="10" x1="1184.2" y1="626.8" x2="1184.2" y2="1202"/>
	</g>
	<g>
		<path fill="#FFFFFF" d="M1245.4,605c5.7,0,10.4,4.4,10.4,10.2c0,5.9-4.6,10.4-10.4,10.4c-5.7,0-10.3-4.4-10.3-10.4
			C1235,609.4,1239.6,605,1245.4,605z M1245.4,623.2c4.2,0,7.7-3.4,7.7-8c0-4.4-3.4-7.8-7.7-7.8s-7.6,3.4-7.6,7.8
			C1237.7,619.8,1241.1,623.2,1245.4,623.2z"/>
		<path fill="#FFFFFF" d="M1259.6,620.9c0.8,0.8,2.6,2.4,5.3,2.4c2.4,0,4.7-1.2,4.7-3.8c0-2.2-1.6-3.5-4.8-3.5h-2.4v-2.1h2.1
			c2.7,0,4.4-1.1,4.4-3.3c0-2.2-1.6-3.3-4.1-3.3c-1.9,0-3.5,0.7-4.8,1.8l-1.2-1.9c1.4-1.1,3.5-2.1,6.4-2.1c3.6,0,6.4,1.8,6.4,5.3
			c0,2.5-1.3,3.8-3,4.5v0.1c2.1,0.5,3.7,2.1,3.7,4.7c0,4-3.5,6-7.3,6c-3.1,0-5.4-1.4-6.8-2.8L1259.6,620.9z"/>
		<path fill="#FFFFFF" d="M1277.1,621.9h3.2v3.2h-3.2V621.9z"/>
		<path fill="#FFFFFF" d="M1296.9,597.7h2.7v11.9h4.6l7.4-11.9h3.1l-8.2,13v0.1l8.8,14.4h-3.2l-7.9-13.1h-4.6v13.1h-2.7V597.7z"/>
		<path fill="#FFFFFF" d="M1318.9,605.5h2.5v2.1c0,0.9-0.1,1.5-0.1,1.5h0.1c1.2-2.5,3.8-4.1,6.8-4.1c5.3,0,8.5,4.2,8.5,10.3
			c0,6.2-3.7,10.3-8.8,10.3c-2.8,0-5.2-1.4-6.5-3.9h-0.1c0,0,0.1,0.7,0.1,1.7v9.5h-2.7V605.5z M1327.7,623.2c3.5,0,6.4-2.9,6.4-7.9
			c0-4.8-2.6-7.9-6.2-7.9c-3.3,0-6.4,2.3-6.4,7.9C1321.5,619.3,1323.7,623.2,1327.7,623.2z"/>
		<path fill="#FFFFFF" d="M1341.9,605.5h2.6v12.9c0,1.2-0.1,2.8-0.1,2.9h0.1c0.1-0.2,1.2-1.8,2-2.9l9.6-12.9h2.5v19.6h-2.6v-12.9
			c0-1.1,0.1-2.7,0.1-2.8h-0.1c0,0.2-1.2,1.8-2,2.8l-9.6,12.9h-2.5V605.5z"/>
		<path fill="#FFFFFF" d="M1364.9,605.5h7.1c4,0,6.5,1.8,6.5,5c0,2-1.1,3.6-3,4.3v0.1c2.5,0.5,4,2.4,4,4.7c0,3.4-2.7,5.5-7.1,5.5
			h-7.5V605.5z M1371.8,614c2.7,0,4-1.3,4-3.4s-1.4-3.1-4.2-3.1h-4v6.5H1371.8z M1372.1,623c3.2,0,4.7-1.4,4.7-3.5
			c0-2.3-1.7-3.6-4.8-3.6h-4.5v7H1372.1z"/>
		<path fill="#FFFFFF" d="M1394.8,613h1.2v-0.5c0-3.8-2.1-5.1-4.8-5.1c-2,0-4,0.7-5.6,1.9l-1.2-2c1.6-1.3,4.3-2.2,6.9-2.2
			c4.7,0,7.3,2.6,7.3,7.5v12.6h-2.5v-2.3c0-1,0.1-1.6,0.1-1.6h-0.1c-1,2.4-3.5,4.4-6.6,4.4c-3.3,0-6.6-2-6.6-5.7
			C1382.9,613.4,1391.1,613,1394.8,613z M1390,623.4c3.8,0,6-3.9,6-7.3v-0.9h-1.1c-3,0-9.3,0.1-9.3,4.5
			C1385.6,621.4,1387,623.4,1390,623.4z"/>
		<path fill="#FFFFFF" d="M1404.8,605.5h7.1c4,0,6.5,1.8,6.5,5c0,2-1.1,3.6-3,4.3v0.1c2.5,0.5,4,2.4,4,4.7c0,3.4-2.7,5.5-7.1,5.5
			h-7.5V605.5z M1411.6,614c2.7,0,4-1.3,4-3.4s-1.4-3.1-4.2-3.1h-4v6.5H1411.6z M1411.9,623c3.2,0,4.7-1.4,4.7-3.5
			c0-2.3-1.7-3.6-4.8-3.6h-4.5v7H1411.9z"/>
		<path fill="#FFFFFF" d="M1432.8,605c5.4,0,8.2,4.2,8.2,9.1c0,0.4,0,0.9-0.1,1.3h-15.1c0.1,5,3.6,7.8,7.6,7.8c2.1,0,4.4-0.9,6-2.3
			l1.2,2c-1.8,1.7-4.7,2.7-7.3,2.7c-5.9,0-10.3-4.2-10.3-10.3C1423.1,608.9,1427.5,605,1432.8,605z M1438.3,613.3
			c-0.2-4.1-2.7-6.1-5.6-6.1c-3.3,0-6.1,2.1-6.8,6.1H1438.3z"/>
	</g>
</g>
</svg>
