<?xml version="1.0" encoding="utf-8"?>
<!-- Generator: Adobe Illustrator 22.0.1, SVG Export Plug-In . SVG Version: 6.00 Build 0)  -->
<svg version="1.1" baseProfile="tiny" id="Layer_1" xmlns="http://www.w3.org/2000/svg" xmlns:xlink="http://www.w3.org/1999/xlink"
	 x="0px" y="0px" viewBox="0 0 1600 2168" xml:space="preserve">
<polyline fill="none" stroke="#FFFFFF" stroke-width="2.6241" stroke-miterlimit="10" points="540.7,865.7 785.7,640 1066.9,464.1 
	1188.4,292.4 1277.5,423.7 1600,524.9 "/>
<g>
	<g>
		<circle fill="#FFFFFF" cx="540.7" cy="865.7" r="20.2"/>
		<circle fill="none" cx="540.7" cy="865.7" r="51.9"/>
	</g>
	<g>
		<path fill="#FFFFFF" d="M512.7,1075.4c2.5-2.2,4.8-6.1,4.8-10.4c0-4.9-3.8-9.6-9.5-9.6c-6,0-9.2,5.1-9.2,10.3v2.6l-1.7,0.7
			l-12.6-10.8c-1-0.8-1.8-1.7-1.8-1.7h-0.1c0,0,0.1,1,0.1,3v15.8h-2.2v-22.1h1.7l14.4,12.5c0-4.6,2.3-12.7,11.4-12.7
			c6.6,0,11.8,5.6,11.8,12.2c0,4.5-2.1,8.9-5.3,12L512.7,1075.4z"/>
		<path fill="#FFFFFF" d="M512.7,1044.3c2.2-1.4,4.7-4.2,4.7-8.9c0-6-4.3-10.7-10.1-10.7c-5.8,0-10.2,4.7-10.2,10.7
			c0,2.5,0.9,5.5,2.3,7.5l-0.6,1.8l-18.4-2.2v-17.9h2.2v15.8l11.5,1.4c1.5,0.2,2.4,0.4,2.4,0.4v-0.1c-0.8-1.3-1.8-4-1.8-6.6
			c0-7.4,5.6-13.2,12.5-13.2s12.4,5.9,12.4,13.2c0,4.4-2,8.5-5.6,10.9L512.7,1044.3z"/>
		<path fill="#FFFFFF" d="M517.1,1015.8c-13.4,0-14.9-20.6-26.6-20.6c-4.6,0-8.3,3.4-8.3,9c0,3.9,2.3,7.3,5.5,9.4l-1.2,1.8
			c-3.8-2.1-6.6-6.4-6.6-11.2c0-7.6,5.1-11.4,10.6-11.4c13.2,0,14.8,20.5,26.5,20.5v-21.1h2.2v23.5
			C518.4,1015.8,517.7,1015.8,517.1,1015.8z"/>
		<path fill="#FFFFFF" d="M491.5,968.9v-2.2l18.2-9.3c1.8-0.9,4-1.9,4-1.9v-0.1c0,0-2.2-0.9-4-1.9l-18.2-9.4v-2.2l27.6-2.2v2.3
			l-19.1,1.5c-1.3,0.1-4.7,0.1-4.7,0.1v0.1c0,0,1.5,0.6,4,1.8l16.9,8.7v2.4l-16.8,8.7c-2.2,1.2-4.1,1.8-4.1,1.8v0.1
			c0,0,3.4-0.1,4.7,0.1l19.1,1.5v2.3L491.5,968.9z"/>
		<line fill="none" stroke="#FFFFFF" stroke-width="1.9681" stroke-miterlimit="10" x1="540.7" y1="865.7" x2="540.7" y2="2163"/>
	</g>
	<g>
		<path fill="#FFFFFF" d="M288.9,772.9c3.9,0,8.3,1.4,11,4.3l-2.1,3c-2.1-2.2-5.4-3.7-8.8-3.7c-6.6,0-11.7,5-11.7,12.1
			c0,7.1,5.1,12,11.8,12c3.5,0,7.2-1.5,9.6-4.1l1.9,3c-2.6,2.9-7.1,4.8-11.7,4.8c-8.9,0-15.8-6.4-15.8-15.7
			C273.1,779.4,280.1,772.9,288.9,772.9z"/>
		<path fill="#FFFFFF" d="M307.1,798.7h4.9v5h-4.9V798.7z"/>
		<path fill="#FFFFFF" d="M335.9,799.9c6.3-8.5,7-20.4,7-30.1v-8.2H366v38.3h4.7V812h-3.9v-8.4h-31.2v8.4h-3.9v-12.1H335.9z
			 M361.9,799.9v-34.6h-14.9v4.6c0,10.2-1,22-6.6,30H361.9z"/>
		<path fill="#FFFFFF" d="M377.4,761.6h4.4v5.1h-4.4V761.6z M377.6,773.6h4.1v30.1h-4.1V773.6z"/>
		<path fill="#FFFFFF" d="M387.7,800.2c5-0.8,7.2-6.5,7.2-17.6v-9.1h18.4v30.1h-4.1v-26.5h-10.4v5.6c0,14.2-3.4,20.6-11.1,21.2
			V800.2z"/>
		<path fill="#FFFFFF" d="M436.8,772.9c8.8,0,15.9,6.7,15.9,15.6c0,9.1-7.1,15.9-15.9,15.9c-8.8,0-15.8-6.8-15.8-15.9
			C421,779.6,428,772.9,436.8,772.9z M436.8,800.7c6.5,0,11.7-5.1,11.7-12.2c0-6.8-5.3-12-11.7-12c-6.5,0-11.7,5.1-11.7,12
			C425.2,795.5,430.4,800.7,436.8,800.7z"/>
		<path fill="#FFFFFF" d="M460.3,773.6h10.9c6.1,0,9.9,2.7,9.9,7.7c0,3.1-1.6,5.6-4.5,6.6v0.1c3.9,0.8,6.1,3.7,6.1,7.2
			c0,5.2-4.1,8.4-10.9,8.4h-11.5V773.6z M470.8,786.6c4.1,0,6.2-1.9,6.2-5.1c0-3.2-2.2-4.8-6.4-4.8h-6.2v9.9H470.8z M471.2,800.5
			c5,0,7.2-2.1,7.2-5.3c0-3.5-2.6-5.4-7.3-5.4h-6.8v10.8H471.2z"/>
		<path fill="#FFFFFF" d="M503.2,772.9c8.3,0,12.6,6.4,12.6,13.9c0,0.7-0.1,1.4-0.1,2h-23.1c0.2,7.7,5.4,11.9,11.7,11.9
			c3.3,0,6.7-1.4,9.1-3.6l1.9,3.1c-2.8,2.6-7.2,4.2-11.1,4.2c-9,0-15.8-6.5-15.8-15.7C488.3,778.8,495.1,772.9,503.2,772.9z
			 M511.7,785.5c-0.2-6.3-4.1-9.3-8.5-9.3c-5,0-9.4,3.3-10.3,9.3H511.7z"/>
	</g>
</g>
<g>
	<g>
		<circle fill="#FFFFFF" cx="785.7" cy="640" r="20.2"/>
		<circle fill="none" cx="785.7" cy="640" r="51.9"/>
	</g>
	<g>
		<path fill="#FFFFFF" d="M763.3,864.3v-7.9H735c-0.9,0-1.7,0-1.7,0v0.1c0,0,0.6,0.3,2.1,1.8l4.1,4.1l-1.4,1.5l-7.5-7.5v-2.1h32.7
			v-7.7h2v17.7H763.3z"/>
		<path fill="#FFFFFF" d="M747.9,841.3c-10,0-18-2.9-18-11.7c0-8.8,7.9-11.7,18-11.7c10.1,0,18,2.9,18,11.7
			C765.8,838.4,758,841.3,747.9,841.3z M747.9,820.1c-8.9,0-15.9,2.1-15.9,9.5c0,7.4,6.9,9.5,15.9,9.5c9,0,15.9-2.1,15.9-9.5
			C763.8,822.2,756.9,820.1,747.9,820.1z"/>
		<path fill="#FFFFFF" d="M759.5,809.8c2-1.3,4.3-3.8,4.3-8c0-5.4-3.9-9.6-9.1-9.6c-5.3,0-9.2,4.2-9.2,9.6c0,2.3,0.8,5,2.1,6.7
			l-0.5,1.6l-16.5-2V792h2v14.2l10.4,1.2c1.3,0.1,2.1,0.3,2.1,0.3v-0.1c-0.7-1.1-1.6-3.6-1.6-5.9c0-6.6,5-11.9,11.3-11.9
			c6.2,0,11.2,5.3,11.2,11.9c0,3.9-1.8,7.6-5,9.8L759.5,809.8z"/>
		<path fill="#FFFFFF" d="M747.9,783.7c-10,0-18-2.9-18-11.7c0-8.8,7.9-11.7,18-11.7c10.1,0,18,2.9,18,11.7
			C765.8,780.8,758,783.7,747.9,783.7z M747.9,762.6c-8.9,0-15.9,2.1-15.9,9.5c0,7.4,6.9,9.5,15.9,9.5c9,0,15.9-2.1,15.9-9.5
			C763.8,764.6,756.9,762.6,747.9,762.6z"/>
		<path fill="#FFFFFF" d="M740.5,739.1v-2l16.4-8.4c1.6-0.8,3.6-1.7,3.6-1.7v-0.1c0,0-2-0.8-3.6-1.7l-16.4-8.4v-2l24.8-2v2.1
			l-17.2,1.4c-1.2,0.1-4.3,0.1-4.3,0.1v0.1c0,0,1.4,0.5,3.6,1.6l15.2,7.8v2.1l-15.1,7.8c-2,1-3.7,1.6-3.7,1.6v0.1c0,0,3.1,0,4.3,0.1
			l17.2,1.4v2.1L740.5,739.1z"/>
		<line fill="none" stroke="#FFFFFF" stroke-width="1.9681" stroke-miterlimit="10" x1="785.7" y1="640" x2="785.7" y2="2163"/>
	</g>
	<g>
		<path fill="#FFFFFF" d="M339.7,625.1c0.6-1,1-1.6,1-1.6v-0.1c-5.2-1.5-7.7-5.5-7.7-10.7c0-4.6,2.3-8,5.6-9.6
			c1.6-0.7,3.3-1.1,7-1.1h11.1V640H353v-16h-8.4l-9.6,16h-4.3L339.7,625.1z M353,620.8v-15.3h-7.1c-2.9,0-4.1,0.3-5.1,0.8
			c-2.4,1.1-3.8,3.6-3.8,6.5c0,4.8,2.9,8,7.4,8H353z"/>
		<path fill="#FFFFFF" d="M363,637c4.5-0.7,6.5-5.8,6.5-15.9v-8.2h16.6V640h-3.7v-24H373v5c0,12.8-3.1,18.6-10,19.2V637z"/>
		<path fill="#FFFFFF" d="M394.9,612.9h3.6v17.8c0,1.7-0.1,3.9-0.2,4h0.1c0.1-0.2,1.7-2.5,2.8-4l13.3-17.8h3.5V640h-3.6v-17.9
			c0-1.6,0.2-3.7,0.2-3.9h-0.1c-0.1,0.3-1.7,2.4-2.8,3.9L398.4,640h-3.5V612.9z"/>
		<path fill="#FFFFFF" d="M426.8,612.9h3.7v11.6h15.9v-11.6h3.7V640h-3.7v-12.3h-15.9V640h-3.7V612.9z"/>
		<path fill="#FFFFFF" d="M471.2,612.2c3.6,0,7.5,1.2,9.9,3.9l-1.9,2.8c-1.9-1.9-4.9-3.3-7.9-3.3c-5.9,0-10.6,4.5-10.6,11
			c0,6.4,4.6,10.9,10.7,10.9c3.1,0,6.5-1.3,8.7-3.7l1.7,2.8c-2.4,2.6-6.4,4.3-10.6,4.3c-8,0-14.3-5.8-14.3-14.2
			C456.9,618.1,463.2,612.2,471.2,612.2z"/>
		<path fill="#FFFFFF" d="M488,612.9h3.7v10.4h5.9c4.9,0,9.5,2.1,9.5,8.5c0,4.9-3.1,8.3-9.6,8.3H488V612.9z M497.1,637.1
			c4.4,0,6.2-2.2,6.2-5.5c0-3.3-1.8-5.5-6.1-5.5h-5.5v11H497.1z"/>
		<path fill="#FFFFFF" d="M513.3,612.9h3.7v11.5h4.3l8.2-11.5h4.3l-9.4,12.9v0.1l10.5,14.1h-4.5l-9-12.4h-4.4V640h-3.7V612.9z"/>
		<path fill="#FFFFFF" d="M540,612.9h3.6v17.8c0,1.7-0.1,3.9-0.2,4h0.1c0.1-0.2,1.7-2.5,2.8-4l13.3-17.8h3.5V640h-3.6v-17.9
			c0-1.6,0.2-3.7,0.2-3.9h-0.1c-0.1,0.3-1.7,2.4-2.8,3.9L543.5,640H540V612.9z"/>
		<path fill="#FFFFFF" d="M571.9,612.9h3.6v17.8c0,1.7-0.1,3.9-0.2,4h0.1c0.1-0.2,1.7-2.5,2.8-4l13.3-17.8h3.5V640h-3.6v-17.9
			c0-1.6,0.2-3.7,0.2-3.9h-0.1c-0.1,0.3-1.7,2.4-2.8,3.9L575.4,640h-3.5V612.9z M576.3,602.9V602h3.2v0.8c0,2.4,1.9,3.7,3.9,3.7
			c2,0,4-1.3,4-3.8V602h3.1v0.9c0,4-3.5,6.4-7.1,6.4S576.3,607,576.3,602.9z"/>
		<path fill="#FFFFFF" d="M617.3,612.9h9.8c5.5,0,9,2.4,9,6.9c0,2.8-1.5,5-4.1,6v0.1c3.5,0.7,5.5,3.3,5.5,6.5c0,4.7-3.7,7.6-9.8,7.6
			h-10.4V612.9z M626.7,624.6c3.7,0,5.6-1.7,5.6-4.6c0-2.9-1.9-4.3-5.8-4.3h-5.6v9H626.7z M627.1,637.2c4.5,0,6.5-1.9,6.5-4.8
			c0-3.2-2.4-4.9-6.6-4.9h-6.2v9.7H627.1z"/>
		<path fill="#FFFFFF" d="M644,636.9c4.6-6,4.8-15.9,4.8-19.6v-4.4h16.8v24h3.8v9.6h-3.5V640h-21.7v6.5h-3.5v-9.6H644z M661.9,636.9
			V616h-9.5v1.6c0,4-0.4,13.2-4.4,19.3H661.9z"/>
		<path fill="#FFFFFF" d="M687.4,612.2c3.6,0,7.5,1.2,9.9,3.9l-1.9,2.8c-1.9-1.9-4.9-3.3-7.9-3.3c-5.9,0-10.6,4.5-10.6,11
			c0,6.4,4.6,10.9,10.7,10.9c3.1,0,6.5-1.3,8.7-3.7l1.7,2.8c-2.4,2.6-6.4,4.3-10.6,4.3c-8,0-14.3-5.8-14.3-14.2
			C673.1,618.1,679.4,612.2,687.4,612.2z"/>
		<path fill="#FFFFFF" d="M704.2,612.9h22.7V640h-3.7v-23.9h-15.4V640h-3.7V612.9z"/>
		<path fill="#FFFFFF" d="M735.3,635.5h4.4v4.5h-4.4V635.5z"/>
	</g>
</g>
<g>
	<g>
		<circle fill="#FFFFFF" cx="963" cy="529.1" r="14.2"/>
		<circle fill="none" cx="963" cy="529.1" r="51.9"/>
	</g>
	<g>
		<path fill="#FFFFFF" d="M943.9,751.5v-8.3h-29.6c-0.9,0-1.8-0.1-1.8-0.1v0.1c0,0,0.7,0.4,2.2,1.9l4.3,4.3l-1.5,1.6l-7.9-7.8v-2.2
			h34.3v-8h2.1v18.5H943.9z"/>
		<path fill="#FFFFFF" d="M934.1,730l-24.4-18.9v-2.1h23.9v-5.4h2.1v5.4H946v2.2h-10.4V730H934.1z M933.5,711.3h-17
			c-1.5,0-3.3-0.2-3.3-0.2v0.1c0,0,1.3,0.9,2.5,1.8l17.7,13.8h0.1V711.3z"/>
		<path fill="#FFFFFF" d="M927.8,697.7c-10.5,0-18.8-3-18.8-12.3c0-9.2,8.3-12.3,18.8-12.3c10.5,0,18.8,3,18.8,12.3
			C946.6,694.7,938.4,697.7,927.8,697.7z M927.8,675.6c-9.3,0-16.6,2.2-16.6,9.9c0,7.7,7.3,9.9,16.6,9.9c9.4,0,16.6-2.2,16.6-9.9
			C944.4,677.7,937.2,675.6,927.8,675.6z"/>
		<path fill="#FFFFFF" d="M927.8,665.9c-10.5,0-18.8-3-18.8-12.3c0-9.2,8.3-12.3,18.8-12.3c10.5,0,18.8,3,18.8,12.3
			C946.6,662.9,938.4,665.9,927.8,665.9z M927.8,643.8c-9.3,0-16.6,2.2-16.6,9.9c0,7.7,7.3,9.9,16.6,9.9c9.4,0,16.6-2.2,16.6-9.9
			C944.4,646,937.2,643.8,927.8,643.8z"/>
		<path fill="#FFFFFF" d="M920,619.2v-2.1l17.2-8.8c1.7-0.8,3.8-1.8,3.8-1.8v-0.1c0,0-2.1-0.9-3.8-1.8l-17.2-8.8v-2.1l26-2.1v2.2
			l-18,1.5c-1.2,0.1-4.5,0.1-4.5,0.1v0.1c0,0,1.5,0.5,3.7,1.7l15.9,8.2v2.2l-15.8,8.2c-2.1,1.1-3.8,1.7-3.8,1.7v0.1
			c0,0,3.2-0.1,4.5,0.1l18,1.5v2.2L920,619.2z"/>
		<line fill="none" stroke="#FFFFFF" stroke-width="1.9681" stroke-miterlimit="10" x1="963" y1="529.1" x2="963" y2="2162.9"/>
	</g>
	<g>
		<path fill="#FFFFFF" d="M540.7,506.3h20.6v24.6H558v-21.7H544v21.7h-3.3V506.3z"/>
		<path fill="#FFFFFF" d="M580.5,505.7c7.2,0,13,5.5,13,12.8c0,7.4-5.8,13-13,13c-7.2,0-13-5.6-13-13
			C567.6,511.2,573.4,505.7,580.5,505.7z M580.5,528.5c5.3,0,9.6-4.2,9.6-10c0-5.6-4.3-9.8-9.6-9.8c-5.3,0-9.5,4.2-9.5,9.8
			C571,524.3,575.3,528.5,580.5,528.5z"/>
		<path fill="#FFFFFF" d="M596.2,528.1c4.1-0.6,5.9-5.3,5.9-14.4v-7.4h15.1v24.6h-3.3v-21.7h-8.5v4.6c0,11.6-2.8,16.9-9.1,17.4
			V528.1z"/>
		<path fill="#FFFFFF" d="M624.7,526.9h4v4.1h-4V526.9z"/>
		<path fill="#FFFFFF" d="M649.5,496.5H669v3h-16.1v11.3h8.2c5.8,0,10.2,3.4,10.2,10.1c0,6.1-4.2,10-9.9,10h-11.9V496.5z
			 M660.9,527.9c4.3,0,6.9-2.6,6.9-6.9c0-4.4-2.8-7.1-6.9-7.1h-8v14H660.9z"/>
		<path fill="#FFFFFF" d="M690.5,515.8h1.5v-0.7c0-4.7-2.6-6.4-6.1-6.4c-2.5,0-5,0.9-7,2.3l-1.5-2.5c2-1.7,5.4-2.8,8.7-2.8
			c5.9,0,9.2,3.3,9.2,9.4v15.8h-3.2V528c0-1.2,0.1-2.1,0.1-2.1h-0.1c-1.3,3-4.4,5.5-8.3,5.5c-4.2,0-8.3-2.4-8.3-7.2
			C675.5,516.3,685.8,515.8,690.5,515.8z M684.4,528.7c4.7,0,7.5-4.9,7.5-9.2v-1.1h-1.4c-3.8,0-11.6,0.1-11.6,5.6
			C678.9,526.3,680.7,528.7,684.4,528.7z"/>
		<path fill="#FFFFFF" d="M702.9,506.3h3.2v2.6c0,1.1-0.1,1.9-0.1,1.9h0.1c1.5-3.2,4.7-5.1,8.6-5.1c6.7,0,10.7,5.3,10.7,12.9
			c0,7.8-4.6,12.9-11,12.9c-3.5,0-6.5-1.8-8.1-4.9h-0.1c0,0,0.1,0.9,0.1,2.2v11.9h-3.3V506.3z M714,528.5c4.4,0,8-3.6,8-9.9
			c0-6-3.2-9.9-7.8-9.9c-4.1,0-8,2.9-8,9.9C706.2,523.6,709,528.5,714,528.5z"/>
		<path fill="#FFFFFF" d="M728.3,528.1c4.1-0.6,5.9-5.3,5.9-14.4v-7.4h15.1v24.6H746v-21.7h-8.5v4.6c0,11.6-2.8,16.9-9.1,17.4V528.1
			z"/>
		<path fill="#FFFFFF" d="M767.8,505.7c6.8,0,10.3,5.2,10.3,11.4c0,0.5,0,1.1-0.1,1.7h-18.9c0.1,6.3,4.5,9.7,9.5,9.7
			c2.7,0,5.5-1.1,7.5-2.9l1.5,2.5c-2.3,2.1-5.9,3.4-9.1,3.4c-7.3,0-12.9-5.3-12.9-12.9C755.6,510.6,761.1,505.7,767.8,505.7z
			 M774.7,516.1c-0.2-5.1-3.3-7.6-7-7.6c-4.1,0-7.7,2.7-8.5,7.6H774.7z"/>
		<path fill="#FFFFFF" d="M793.4,499.6l9.1-4.3l1.2,2.8l-9.5,4.4c-5.6,2.6-7.5,6.2-7.9,11.4h0.1c2.2-4,5.5-5.2,9.2-5.2
			c6,0,10.4,4.2,10.4,11.4c0,6.8-4.6,11.5-11.2,11.5c-8.1,0-11.6-6.2-11.6-14.5C783.2,508.7,785.2,503.3,793.4,499.6z M794.7,528.6
			c4.4,0,7.9-3.2,7.9-8.6c0-5.4-3.5-8.6-7.7-8.6c-4.8,0-8.1,3.7-8.1,8.5C786.9,525.4,790.4,528.6,794.7,528.6z"/>
		<path fill="#FFFFFF" d="M825.3,515.8h1.5v-0.7c0-4.7-2.6-6.4-6.1-6.4c-2.5,0-5,0.9-7,2.3l-1.5-2.5c2-1.7,5.4-2.8,8.7-2.8
			c5.9,0,9.2,3.3,9.2,9.4v15.8h-3.2V528c0-1.2,0.1-2.1,0.1-2.1H827c-1.3,3-4.4,5.5-8.3,5.5c-4.2,0-8.3-2.4-8.3-7.2
			C810.4,516.3,820.6,515.8,825.3,515.8z M819.3,528.7c4.7,0,7.5-4.9,7.5-9.2v-1.1h-1.4c-3.8,0-11.6,0.1-11.6,5.6
			C813.7,526.3,815.6,528.7,819.3,528.7z"/>
		<path fill="#FFFFFF" d="M837.8,506.3h3.2V528h10.6v-21.7h3.2V528h10.5v-21.7h3.2v24.6h-30.8V506.3z"/>
		<path fill="#FFFFFF" d="M876.5,506.3h3.3v10.4h3.9l7.4-10.4h3.9l-8.6,11.7v0.1l9.5,12.8H892l-8.2-11.3h-4v11.3h-3.3V506.3z"/>
		<path fill="#FFFFFF" d="M913.3,515.8h1.5v-0.7c0-4.7-2.6-6.4-6.1-6.4c-2.5,0-5,0.9-7,2.3l-1.5-2.5c2-1.7,5.4-2.8,8.7-2.8
			c5.9,0,9.2,3.3,9.2,9.4v15.8h-3.2V528c0-1.2,0.1-2.1,0.1-2.1h-0.1c-1.3,3-4.4,5.5-8.3,5.5c-4.2,0-8.3-2.4-8.3-7.2
			C898.3,516.3,908.6,515.8,913.3,515.8z M907.2,528.7c4.7,0,7.5-4.9,7.5-9.2v-1.1h-1.4c-3.8,0-11.6,0.1-11.6,5.6
			C901.7,526.3,903.5,528.7,907.2,528.7z"/>
	</g>
</g>
<g>
	<g>
		<circle fill="#FFFFFF" cx="1066.9" cy="464.1" r="20.2"/>
		<circle fill="none" cx="1066.9" cy="464.1" r="51.9"/>
	</g>
	<g>
		<path fill="#FFFFFF" d="M1052.2,673.2v-8h-28.7c-0.9,0-1.8,0-1.8,0v0.1c0,0,0.7,0.4,2.2,1.9l4.2,4.2l-1.5,1.5l-7.6-7.6v-2.2h33.2
			v-7.8h2v18H1052.2z"/>
		<path fill="#FFFFFF" d="M1048.4,648.7c2-1.3,4.3-3.9,4.3-8.1c0-5.5-3.9-9.8-9.2-9.8c-5.3,0-9.3,4.3-9.3,9.8c0,2.3,0.8,5,2.1,6.8
			l-0.6,1.6l-16.8-2v-16.3h2v14.4l10.5,1.3c1.4,0.2,2.2,0.4,2.2,0.4v-0.1c-0.8-1.2-1.6-3.6-1.6-6c0-6.7,5.1-12,11.4-12
			c6.3,0,11.3,5.4,11.3,12c0,4-1.9,7.7-5.1,9.9L1048.4,648.7z"/>
		<path fill="#FFFFFF" d="M1036.6,622.3c-10.2,0-18.2-2.9-18.2-11.9s8-11.9,18.2-11.9c10.2,0,18.2,2.9,18.2,11.9
			S1046.8,622.3,1036.6,622.3z M1036.6,600.8c-9.1,0-16.1,2.1-16.1,9.6s7,9.6,16.1,9.6c9.1,0,16.1-2.1,16.1-9.6
			S1045.7,600.8,1036.6,600.8z"/>
		<path fill="#FFFFFF" d="M1036.6,591.5c-10.2,0-18.2-2.9-18.2-11.9s8-11.9,18.2-11.9c10.2,0,18.2,2.9,18.2,11.9
			S1046.8,591.5,1036.6,591.5z M1036.6,570c-9.1,0-16.1,2.1-16.1,9.6s7,9.6,16.1,9.6c9.1,0,16.1-2.1,16.1-9.6S1045.7,570,1036.6,570
			z"/>
		<path fill="#FFFFFF" d="M1029.1,546.2v-2l16.7-8.5c1.6-0.8,3.7-1.7,3.7-1.7v-0.1c0,0-2-0.9-3.7-1.7l-16.7-8.6v-2l25.2-2v2.1
			l-17.5,1.4c-1.2,0.1-4.3,0-4.3,0v0.1c0,0,1.4,0.5,3.6,1.7l15.4,7.9v2.2l-15.3,7.9c-2,1.1-3.7,1.7-3.7,1.7v0.1c0,0,3.1,0,4.3,0
			l17.5,1.4v2.1L1029.1,546.2z"/>
		<line fill="none" stroke="#FFFFFF" stroke-width="1.9681" stroke-miterlimit="10" x1="1066.9" y1="464.1" x2="1066.9" y2="2163"/>
	</g>
	<g>
		<path fill="#FFFFFF" d="M671.3,407.9h27.3v32.6h-4.4v-28.7h-18.5v28.7h-4.4V407.9z"/>
		<path fill="#FFFFFF" d="M724.1,407.1c9.5,0,17.2,7.3,17.2,16.9c0,9.9-7.7,17.2-17.2,17.2s-17.2-7.4-17.2-17.2
			C706.9,414.4,714.6,407.1,724.1,407.1z M724.1,437.2c7,0,12.7-5.6,12.7-13.2c0-7.4-5.7-13-12.7-13s-12.6,5.6-12.6,13
			C711.4,431.7,717.1,437.2,724.1,437.2z"/>
		<path fill="#FFFFFF" d="M744.8,436.8c5.4-0.8,7.8-7,7.8-19.1v-9.9h20v32.6h-4.4v-28.8h-11.3v6c0,15.4-3.7,22.4-12.1,23V436.8z"/>
		<path fill="#FFFFFF" d="M782.6,435.1h5.3v5.4h-5.3V435.1z"/>
		<path fill="#FFFFFF" d="M820.5,404.1v-9.2h25v45.6H841v-41.6h-16.1v5.3c0,21.6-2.7,35.9-15.2,36.8v-4.2
			C818.2,435.6,820.5,423.5,820.5,404.1z"/>
		<path fill="#FFFFFF" d="M856.8,407.9h4.3v21.4c0,2-0.1,4.7-0.2,4.9h0.1c0.1-0.3,2.1-3,3.4-4.9l16-21.4h4.2v32.6h-4.3V419
			c0-1.9,0.2-4.5,0.2-4.7h-0.1c-0.1,0.3-2.1,2.9-3.3,4.7l-16,21.5h-4.2V407.9z"/>
		<path fill="#FFFFFF" d="M910.1,407.1c4.3,0,9,1.5,11.9,4.7l-2.3,3.3c-2.3-2.3-5.9-4-9.5-4c-7.1,0-12.7,5.4-12.7,13.2
			c0,7.7,5.6,13,12.8,13c3.8,0,7.8-1.6,10.4-4.5l2,3.3c-2.9,3.2-7.7,5.2-12.7,5.2c-9.7,0-17.1-6.9-17.1-17.1
			C892.9,414.2,900.5,407.1,910.1,407.1z"/>
		<path fill="#FFFFFF" d="M934.8,429.3c0.6-1,1.5-1.9,1.5-1.9v-0.1c-3.8-0.8-7.5-4.1-7.5-9.4c0-6.5,4.8-9.9,11.5-9.9h11.5v32.6h-4.4
			V428h-6.7l-8.6,12.5H927L934.8,429.3z M947.4,424.5v-13.3h-6.2c-4.9,0-7.8,1.9-7.8,6.5c0,4.4,3.3,6.7,7.5,6.7H947.4z"/>
		<path fill="#FFFFFF" d="M960.2,418.2v-10.4h4.3v9.9c0,3.4,1,6.8,7.4,6.8c3.6,0,6.7-1.6,8.1-2.7v-14.1h4.4v32.6H980v-12.4
			c0-1,0.1-2.1,0.1-2.1H980c-2.2,1.4-6,2.5-8.9,2.5C963.5,428.6,960.2,424.6,960.2,418.2z"/>
		<path fill="#FFFFFF" d="M1011.9,420.4h1.9v-0.9c0-6.3-3.4-8.4-8-8.4c-3.3,0-6.6,1.2-9.3,3.1l-2-3.4c2.6-2.2,7.2-3.7,11.5-3.7
			c7.8,0,12.2,4.3,12.2,12.5v20.9h-4.2v-3.8c0-1.6,0.2-2.7,0.2-2.7h-0.1c-1.7,4-5.8,7.3-11,7.3c-5.5,0-11-3.2-11-9.5
			C992.1,421,1005.7,420.4,1011.9,420.4z M1003.9,437.6c6.3,0,10-6.5,10-12.2v-1.5h-1.9c-5.1,0-15.4,0.2-15.4,7.5
			C996.5,434.4,999,437.6,1003.9,437.6z"/>
	</g>
</g>
<g>
	<g>
		<circle fill="#FFFFFF" cx="1188.4" cy="292.4" r="20.2"/>
		<circle fill="none" cx="1188.4" cy="292.4" r="51.9"/>
	</g>
	<g>
		<path fill="#FFFFFF" d="M1172.6,591.5v-8.7h-31.3c-1,0-1.9-0.1-1.9-0.1v0.1c0,0,0.7,0.4,2.4,2l4.6,4.6l-1.6,1.6l-8.4-8.3v-2.4
			h36.3v-8.5h2.2v19.6H1172.6z"/>
		<path fill="#FFFFFF" d="M1171.8,563.5c0.7-1.2,1.4-3.4,1.4-5.7c0-9-9.2-13.4-17.7-14v0.1c3.2,2.1,5.3,6.4,5.3,10.9
			c0,6.8-4.8,11.8-12.3,11.8c-8.4,0-12.8-5.5-12.8-11.8c0-8.5,8.1-13.5,18-13.5c9.4,0,21.8,4.7,21.8,16.5c0,2.3-0.5,4.6-1.5,6.7
			L1171.8,563.5z M1150.8,544.1c-5.3,0-12.8,4.2-12.8,10.7c0,5.9,4.4,9.4,10.5,9.4c6.2,0,9.9-3.9,9.9-9.5
			C1158.5,548.8,1154.3,544.1,1150.8,544.1z"/>
		<path fill="#FFFFFF" d="M1168.4,533c2.5-2.2,4.8-6.1,4.8-10.3c0-4.9-3.8-9.6-9.5-9.6c-6,0-9.2,5.1-9.2,10.3v2.6l-1.6,0.7
			l-12.6-10.8c-1-0.8-1.8-1.7-1.8-1.7h-0.1c0,0,0.1,1,0.1,3v15.8h-2.2v-22h1.6l14.3,12.4c0-4.6,2.3-12.7,11.4-12.7
			c6.6,0,11.8,5.6,11.8,12.2c0,4.5-2.1,8.9-5.3,12L1168.4,533z"/>
		<path fill="#FFFFFF" d="M1135.7,487c0-2.4,0.5-4.6,1.5-6.8l2.1,1.2c-0.9,1.5-1.4,3.7-1.4,5.8c0,8.8,9.2,13.3,17.7,13.8v-0.1
			c-3.2-2.1-5.3-6.4-5.3-10.9c0-6.8,4.7-11.8,12.4-11.8c8.1,0,12.6,5.5,12.6,11.8c0,8.5-8.2,13.5-17.9,13.5
			C1148.1,503.5,1135.7,498.8,1135.7,487z M1162.7,480.7c-6.3,0-10,3.9-10,9.5c0,5.3,3.5,10.7,8.2,10.7c3.8,0,12.3-3.5,12.3-11
			C1173.2,484.3,1168.8,480.7,1162.7,480.7z"/>
		<path fill="#FFFFFF" d="M1147.4,455.4v-2.2l18.2-9.3c1.8-0.9,4-1.9,4-1.9v-0.1c0,0-2.2-0.9-4-1.9l-18.2-9.3v-2.2l27.5-2.2v2.3
			l-19.1,1.5c-1.3,0.1-4.7,0.1-4.7,0.1v0.1c0,0,1.5,0.5,4,1.8l16.8,8.6v2.4l-16.7,8.6c-2.2,1.2-4.1,1.8-4.1,1.8v0.1
			c0,0,3.4-0.1,4.7,0.1l19.1,1.5v2.3L1147.4,455.4z"/>
		<line fill="none" stroke="#FFFFFF" stroke-width="1.9681" stroke-miterlimit="10" x1="1188.4" y1="292.4" x2="1188.4" y2="2163"/>
	</g>
	<g>
		<path fill="#FFFFFF" d="M768.1,244h24v4.7h-18.5v35.4h-5.4V244z"/>
		<path fill="#FFFFFF" d="M795,277.6h6.5v6.6H795V277.6z"/>
		<path fill="#FFFFFF" d="M835.5,228.1h42.8v56.1h-5.5V233H841v51.2h-5.5V228.1z"/>
		<path fill="#FFFFFF" d="M892.2,228.1h5.9v6.8h-5.9V228.1z M892.4,244h5.4v40.2h-5.4V244z"/>
		<path fill="#FFFFFF" d="M910.8,244h33.6v40.2H939v-35.4h-22.8v35.4h-5.4V244z"/>
		<path fill="#FFFFFF" d="M956.8,259h22.7v4.9h-22.7V259z"/>
		<path fill="#FFFFFF" d="M993.4,228.1h5.5v56.1h-5.5V228.1z"/>
		<path fill="#FFFFFF" d="M1013,244h14.5c8.1,0,13.3,3.6,13.3,10.2c0,4.2-2.2,7.4-6.1,8.9v0.2c5.2,1,8.1,4.9,8.1,9.7
			c0,6.9-5.5,11.3-14.5,11.3H1013V244z M1026.9,261.4c5.4,0,8.2-2.6,8.2-6.9c0-4.3-2.9-6.4-8.5-6.4h-8.2v13.3H1026.9z M1027.6,280
			c6.6,0,9.7-2.8,9.7-7.1c0-4.7-3.5-7.3-9.7-7.3h-9.1V280H1027.6z"/>
		<path fill="#FFFFFF" d="M1074,259.4h2.4v-1.1c0-7.7-4.2-10.4-9.9-10.4c-4.1,0-8.1,1.4-11.4,3.8l-2.5-4.2c3.2-2.7,8.9-4.6,14.2-4.6
			c9.7,0,15,5.4,15,15.4v25.7h-5.2v-4.7c0-2,0.2-3.4,0.2-3.4h-0.2c-2.1,4.9-7.1,9-13.6,9c-6.8,0-13.6-4-13.6-11.7
			C1049.6,260.2,1066.4,259.4,1074,259.4z M1064.1,280.6c7.7,0,12.3-8,12.3-15v-1.8h-2.3c-6.2,0-19,0.2-19,9.2
			C1055.1,276.7,1058.2,280.6,1064.1,280.6z"/>
		<path fill="#FFFFFF" d="M1094.4,244h5.4v17.2h23.5V244h5.4v40.2h-5.4V266h-23.5v18.2h-5.4V244z"/>
	</g>
</g>
<g>
	<g>
		<circle fill="#FFFFFF" cx="1277.5" cy="423.7" r="14.2"/>
		<circle fill="none" cx="1277.5" cy="423.7" r="51.9"/>
	</g>
	<g>
		<path fill="#FFFFFF" d="M1262.2,629.3v-8h-28.6c-0.9,0-1.8,0-1.8,0v0.1c0,0,0.7,0.4,2.2,1.9l4.2,4.2l-1.5,1.5l-7.6-7.6v-2.2h33.2
			v-7.8h2v17.9H1262.2z"/>
		<path fill="#FFFFFF" d="M1228.5,591.6c0-2.2,0.5-4.2,1.4-6.2l2,1.1c-0.8,1.4-1.3,3.4-1.3,5.3c0,8,8.4,12.2,16.2,12.7v-0.1
			c-3-2-4.8-5.8-4.8-9.9c0-6.2,4.3-10.8,11.4-10.8c7.4,0,11.6,5,11.6,10.8c0,7.8-7.5,12.3-16.4,12.3
			C1239.8,606.6,1228.5,602.4,1228.5,591.6z M1253.2,585.8c-5.7,0-9.1,3.6-9.1,8.6c0,4.9,3.2,9.7,7.5,9.7c3.5,0,11.2-3.2,11.2-10.1
			C1262.7,589.1,1258.7,585.8,1253.2,585.8z"/>
		<path fill="#FFFFFF" d="M1246.7,577.1c-10.1,0-18.2-2.9-18.2-11.9c0-8.9,8-11.9,18.2-11.9c10.2,0,18.2,2.9,18.2,11.9
			C1264.8,574.2,1256.9,577.1,1246.7,577.1z M1246.7,555.7c-9,0-16.1,2.1-16.1,9.6c0,7.5,7,9.6,16.1,9.6c9.1,0,16.1-2.1,16.1-9.6
			C1262.7,557.8,1255.7,555.7,1246.7,555.7z"/>
		<path fill="#FFFFFF" d="M1246.7,546.4c-10.1,0-18.2-2.9-18.2-11.9c0-8.9,8-11.9,18.2-11.9c10.2,0,18.2,2.9,18.2,11.9
			C1264.8,543.5,1256.9,546.4,1246.7,546.4z M1246.7,524.9c-9,0-16.1,2.1-16.1,9.6c0,7.5,7,9.6,16.1,9.6c9.1,0,16.1-2.1,16.1-9.6
			C1262.7,527,1255.7,524.9,1246.7,524.9z"/>
		<path fill="#FFFFFF" d="M1239.1,501.2v-2l16.6-8.5c1.6-0.8,3.7-1.7,3.7-1.7v-0.1c0,0-2-0.9-3.7-1.7l-16.6-8.5v-2l25.1-2v2.1
			l-17.4,1.4c-1.2,0.1-4.3,0-4.3,0v0.1c0,0,1.4,0.5,3.6,1.7l15.4,7.9v2.2l-15.3,7.9c-2,1.1-3.7,1.7-3.7,1.7v0.1c0,0,3.1,0,4.3,0.1
			l17.4,1.4v2.1L1239.1,501.2z"/>
		<line fill="none" stroke="#FFFFFF" stroke-width="1.9681" stroke-miterlimit="10" x1="1277.5" y1="423.7" x2="1277.5" y2="2163"/>
	</g>
	<g>
		<path fill="#FFFFFF" d="M1321,406.3c5.1,0,9.2,3.9,9.2,9c0,5.3-4.1,9.2-9.2,9.2c-5.1,0-9.2-3.9-9.2-9.2
			C1311.8,410.2,1315.9,406.3,1321,406.3z M1321,422.4c3.7,0,6.8-3,6.8-7.1c0-3.9-3-6.9-6.8-6.9s-6.8,3-6.8,6.9
			C1314.2,419.5,1317.2,422.4,1321,422.4z"/>
		<path fill="#FFFFFF" d="M1333.6,420.4c0.7,0.7,2.3,2.1,4.7,2.1c2.1,0,4.2-1.1,4.2-3.4c0-2-1.5-3.1-4.2-3.1h-2.1v-1.9h1.8
			c2.4,0,3.9-0.9,3.9-2.9c0-2-1.5-2.9-3.6-2.9c-1.7,0-3.1,0.6-4.3,1.6l-1-1.7c1.2-1,3.1-1.9,5.6-1.9c3.2,0,5.7,1.6,5.7,4.7
			c0,2.2-1.2,3.4-2.7,4v0.1c1.9,0.5,3.3,1.9,3.3,4.2c0,3.5-3.1,5.3-6.5,5.3c-2.7,0-4.8-1.3-6.1-2.5L1333.6,420.4z"/>
		<path fill="#FFFFFF" d="M1349.1,421.3h2.8v2.9h-2.8V421.3z"/>
		<path fill="#FFFFFF" d="M1366.7,399.8h2.4v10.6h4.1l6.6-10.6h2.7l-7.3,11.5v0.1l7.8,12.8h-2.8l-7-11.6h-4.1v11.6h-2.4V399.8z"/>
		<path fill="#FFFFFF" d="M1386.2,406.7h2.3v1.8c0,0.8-0.1,1.4-0.1,1.4h0.1c1.1-2.3,3.4-3.6,6.1-3.6c4.7,0,7.6,3.7,7.6,9.1
			c0,5.5-3.3,9.1-7.8,9.1c-2.5,0-4.6-1.3-5.8-3.5h-0.1c0,0,0.1,0.6,0.1,1.5v8.5h-2.4V406.7z M1394.1,422.5c3.1,0,5.6-2.6,5.6-7
			c0-4.3-2.3-7-5.5-7c-2.9,0-5.6,2.1-5.6,7C1388.5,419,1390.5,422.5,1394.1,422.5z"/>
		<path fill="#FFFFFF" d="M1406.7,406.7h2.3v11.4c0,1.1-0.1,2.5-0.1,2.6h0.1c0.1-0.1,1.1-1.6,1.8-2.6l8.6-11.4h2.3v17.4h-2.3v-11.5
			c0-1,0.1-2.4,0.1-2.5h-0.1c0,0.2-1.1,1.6-1.8,2.5l-8.6,11.5h-2.3V406.7z"/>
		<path fill="#FFFFFF" d="M1427.1,406.7h6.3c3.5,0,5.8,1.6,5.8,4.4c0,1.8-0.9,3.2-2.6,3.8v0.1c2.3,0.4,3.5,2.1,3.5,4.2
			c0,3-2.4,4.9-6.3,4.9h-6.7V406.7z M1433.2,414.3c2.4,0,3.6-1.1,3.6-3c0-1.9-1.2-2.8-3.7-2.8h-3.6v5.8H1433.2z M1433.5,422.3
			c2.9,0,4.2-1.2,4.2-3.1c0-2-1.5-3.2-4.2-3.2h-4v6.2H1433.5z"/>
		<path fill="#FFFFFF" d="M1453.6,413.4h1v-0.5c0-3.4-1.8-4.5-4.3-4.5c-1.8,0-3.5,0.6-5,1.7l-1.1-1.8c1.4-1.2,3.8-2,6.2-2
			c4.2,0,6.5,2.3,6.5,6.7v11.2h-2.3v-2c0-0.9,0.1-1.5,0.1-1.5h-0.1c-0.9,2.1-3.1,3.9-5.9,3.9c-2.9,0-5.9-1.7-5.9-5.1
			C1443,413.8,1450.3,413.4,1453.6,413.4z M1449.3,422.6c3.4,0,5.3-3.5,5.3-6.5v-0.8h-1c-2.7,0-8.2,0.1-8.2,4
			C1445.4,420.9,1446.7,422.6,1449.3,422.6z"/>
		<path fill="#FFFFFF" d="M1462.5,406.7h6.3c3.5,0,5.8,1.6,5.8,4.4c0,1.8-0.9,3.2-2.6,3.8v0.1c2.3,0.4,3.5,2.1,3.5,4.2
			c0,3-2.4,4.9-6.3,4.9h-6.7V406.7z M1468.5,414.3c2.4,0,3.6-1.1,3.6-3c0-1.9-1.2-2.8-3.7-2.8h-3.6v5.8H1468.5z M1468.8,422.3
			c2.9,0,4.2-1.2,4.2-3.1c0-2-1.5-3.2-4.2-3.2h-4v6.2H1468.8z"/>
		<path fill="#FFFFFF" d="M1487.4,406.3c4.8,0,7.3,3.7,7.3,8c0,0.4,0,0.8-0.1,1.2h-13.4c0.1,4.4,3.2,6.9,6.8,6.9
			c1.9,0,3.9-0.8,5.3-2.1l1.1,1.8c-1.6,1.5-4.2,2.4-6.4,2.4c-5.2,0-9.1-3.7-9.1-9.1C1478.7,409.8,1482.6,406.3,1487.4,406.3z
			 M1492.2,413.7c-0.1-3.6-2.4-5.4-5-5.4c-2.9,0-5.4,1.9-6,5.4H1492.2z"/>
	</g>
</g>
</svg>
