<?xml version="1.0" encoding="utf-8"?>
<!-- Generator: Adobe Illustrator 22.0.1, SVG Export Plug-In . SVG Version: 6.00 Build 0)  -->
<svg version="1.1" baseProfile="tiny" id="Layer_1" xmlns="http://www.w3.org/2000/svg" xmlns:xlink="http://www.w3.org/1999/xlink"
	 x="0px" y="0px" viewBox="0 0 1600 1200" xml:space="preserve">
<polyline fill="none" stroke="#FFFFFF" stroke-width="2.2677" stroke-miterlimit="10" points="0,1199.9 388.6,951.7 600.4,756.6 
	843.4,604.6 948.4,456.2 1025.3,569.7 1132.2,639.4 1209.6,604.6 1310,499.5 1387.7,534.7 1449.4,639.7 1600,569.7 "/>
<g>
	<g>
		<circle fill="#FFFFFF" cx="388.6" cy="951.7" r="17.5"/>
		<circle fill="none" cx="388.6" cy="951.7" r="44.9"/>
	</g>
	<g>
		<path fill="#FFFFFF" d="M371.3,1116.5c2.1-1.9,4.1-5.3,4.1-9c0-4.2-3.3-8.3-8.2-8.3c-5.2,0-8,4.4-8,8.9v2.3l-1.4,0.6l-10.9-9.3
			c-0.9-0.7-1.5-1.5-1.5-1.5h-0.1c0,0,0.1,0.9,0.1,2.6v13.7h-1.9v-19.1h1.4l12.4,10.8c0-4,2-11,9.9-11c5.7,0,10.2,4.8,10.2,10.6
			c0,3.9-1.8,7.7-4.6,10.4L371.3,1116.5z"/>
		<path fill="#FFFFFF" d="M371.3,1089.6c1.9-1.2,4.1-3.7,4.1-7.7c0-5.2-3.7-9.2-8.7-9.2c-5,0-8.8,4-8.8,9.2c0,2.2,0.8,4.8,2,6.5
			l-0.5,1.5l-15.9-1.9v-15.5h1.9v13.7l10,1.2c1.3,0.1,2,0.3,2,0.3v-0.1c-0.7-1.1-1.5-3.4-1.5-5.7c0-6.4,4.8-11.4,10.8-11.4
			s10.7,5.1,10.7,11.4c0,3.8-1.8,7.3-4.8,9.4L371.3,1089.6z"/>
		<path fill="#FFFFFF" d="M375.1,1065c-11.6,0-12.9-17.8-23-17.8c-4,0-7.1,3-7.1,7.8c0,3.3,2,6.3,4.8,8.1l-1,1.5
			c-3.3-1.9-5.7-5.6-5.7-9.7c0-6.6,4.4-9.9,9.1-9.9c11.4,0,12.8,17.7,22.9,17.7v-18.2h1.9v20.3C376.3,1064.9,375.7,1065,375.1,1065z
			"/>
		<path fill="#FFFFFF" d="M353.1,1024.4v-1.9l15.8-8c1.5-0.8,3.5-1.6,3.5-1.6v-0.1c0,0-1.9-0.8-3.5-1.6l-15.8-8.1v-1.9l23.8-1.9v2
			l-16.5,1.3c-1.1,0.1-4.1,0-4.1,0v0.1c0,0,1.3,0.5,3.4,1.6l14.6,7.5v2l-14.5,7.5c-1.9,1-3.5,1.6-3.5,1.6v0.1c0,0,3,0,4.1,0
			l16.5,1.3v2L353.1,1024.4z"/>
		<line fill="none" stroke="#FFFFFF" stroke-width="1.7008" stroke-miterlimit="10" x1="388.6" y1="951.7" x2="388.6" y2="1200"/>
	</g>
	<g>
		<path fill="#FFFFFF" d="M199.7,935c2.3,0,4.9,0.8,6.4,2.5l-1.2,1.8c-1.2-1.3-3.2-2.2-5.1-2.2c-3.9,0-6.9,2.9-6.9,7.1
			c0,4.1,3,7,6.9,7c2,0,4.2-0.9,5.6-2.4l1.1,1.8c-1.5,1.7-4.2,2.8-6.9,2.8c-5.2,0-9.2-3.7-9.2-9.2C190.4,938.9,194.5,935,199.7,935z
			"/>
		<path fill="#FFFFFF" d="M210.3,950.2h2.9v2.9h-2.9V950.2z"/>
		<path fill="#FFFFFF" d="M227.2,950.9c3.7-5,4.1-11.9,4.1-17.6v-4.8h13.5v22.4h2.8v7.1h-2.3v-4.9H227v4.9h-2.3v-7.1H227.2z
			 M242.4,950.9v-20.3h-8.8v2.7c0,6-0.6,12.9-3.9,17.6H242.4z"/>
		<path fill="#FFFFFF" d="M251.5,928.5h2.6v3h-2.6V928.5z M251.6,935.5h2.4v17.6h-2.4V935.5z"/>
		<path fill="#FFFFFF" d="M257.5,951.1c2.9-0.5,4.2-3.8,4.2-10.3v-5.3h10.8v17.6h-2.4v-15.5H264v3.3c0,8.3-2,12.1-6.5,12.4V951.1z"
			/>
		<path fill="#FFFFFF" d="M286.3,935c5.1,0,9.3,3.9,9.3,9.1c0,5.3-4.2,9.3-9.3,9.3c-5.1,0-9.3-4-9.3-9.3
			C277,939,281.1,935,286.3,935z M286.3,951.3c3.8,0,6.9-3,6.9-7.1c0-4-3.1-7-6.9-7c-3.8,0-6.8,3-6.8,7
			C279.5,948.3,282.5,951.3,286.3,951.3z"/>
		<path fill="#FFFFFF" d="M300,935.5h6.4c3.6,0,5.8,1.6,5.8,4.5c0,1.8-0.9,3.3-2.7,3.9v0.1c2.3,0.5,3.6,2.2,3.6,4.2
			c0,3-2.4,4.9-6.4,4.9H300V935.5z M306.2,943.1c2.4,0,3.6-1.1,3.6-3s-1.3-2.8-3.7-2.8h-3.6v5.8H306.2z M306.4,951.2
			c2.9,0,4.2-1.2,4.2-3.1c0-2.1-1.5-3.2-4.3-3.2h-4v6.3H306.4z"/>
		<path fill="#FFFFFF" d="M325.2,935c4.9,0,7.4,3.7,7.4,8.1c0,0.4,0,0.8-0.1,1.2h-13.5c0.1,4.5,3.2,7,6.8,7c1.9,0,3.9-0.8,5.4-2.1
			l1.1,1.8c-1.6,1.5-4.2,2.5-6.5,2.5c-5.3,0-9.2-3.8-9.2-9.2C316.5,938.5,320.4,935,325.2,935z M330.1,942.5c-0.1-3.7-2.4-5.5-5-5.5
			c-2.9,0-5.5,1.9-6.1,5.5H330.1z"/>
	</g>
</g>
<g>
	<g>
		<circle fill="#FFFFFF" cx="600.4" cy="756.6" r="17.5"/>
		<circle fill="none" cx="600.4" cy="756.6" r="44.9"/>
	</g>
	<g>
		<path fill="#FFFFFF" d="M581,950.5v-6.8h-24.4c-0.8,0-1.5,0-1.5,0v0.1c0,0,0.6,0.3,1.8,1.6l3.6,3.6l-1.2,1.3l-6.5-6.5v-1.8H581
			v-6.6h1.7v15.3H581z"/>
		<path fill="#FFFFFF" d="M567.7,930.6c-8.7,0-15.5-2.5-15.5-10.1c0-7.6,6.9-10.1,15.5-10.1c8.7,0,15.5,2.5,15.5,10.1
			C583.2,928.1,576.4,930.6,567.7,930.6z M567.7,912.3c-7.7,0-13.7,1.8-13.7,8.2c0,6.4,6,8.2,13.7,8.2c7.8,0,13.7-1.8,13.7-8.2
			C581.4,914.1,575.4,912.3,567.7,912.3z"/>
		<path fill="#FFFFFF" d="M577.7,903.4c1.7-1.1,3.7-3.3,3.7-6.9c0-4.7-3.3-8.3-7.8-8.3c-4.5,0-7.9,3.6-7.9,8.3c0,2,0.7,4.3,1.8,5.8
			l-0.5,1.4l-14.3-1.7V888h1.7v12.3l9,1.1c1.2,0.1,1.8,0.3,1.8,0.3v-0.1c-0.6-1-1.4-3.1-1.4-5.1c0-5.7,4.3-10.2,9.7-10.2
			s9.6,4.6,9.6,10.2c0,3.4-1.6,6.6-4.3,8.4L577.7,903.4z"/>
		<path fill="#FFFFFF" d="M567.7,880.8c-8.7,0-15.5-2.5-15.5-10.1c0-7.6,6.9-10.1,15.5-10.1c8.7,0,15.5,2.5,15.5,10.1
			C583.2,878.3,576.4,880.8,567.7,880.8z M567.7,862.5c-7.7,0-13.7,1.8-13.7,8.2c0,6.4,6,8.2,13.7,8.2c7.8,0,13.7-1.8,13.7-8.2
			C581.4,864.3,575.4,862.5,567.7,862.5z"/>
		<path fill="#FFFFFF" d="M561.3,842.2v-1.7l14.2-7.2c1.4-0.7,3.1-1.5,3.1-1.5v-0.1c0,0-1.7-0.7-3.1-1.5l-14.2-7.3v-1.7l21.4-1.7
			v1.8l-14.9,1.2c-1,0.1-3.7,0-3.7,0v0.1c0,0,1.2,0.4,3.1,1.4l13.1,6.7v1.8l-13,6.7c-1.7,0.9-3.2,1.4-3.2,1.4v0.1c0,0,2.7,0,3.7,0
			l14.9,1.2v1.8L561.3,842.2z"/>
		<line fill="none" stroke="#FFFFFF" stroke-width="1.7008" stroke-miterlimit="10" x1="600.4" y1="756.6" x2="600.4" y2="1200"/>
	</g>
	<g>
		<path fill="#FFFFFF" d="M301.2,748.4c0.4-0.7,0.7-1,0.7-1v-0.1c-3.4-1-5-3.6-5-7c0-3,1.5-5.2,3.6-6.2c1-0.5,2.2-0.7,4.5-0.7h7.2
			V758h-2.5v-10.4h-5.5l-6.2,10.4h-2.8L301.2,748.4z M309.9,745.5v-9.9h-4.6c-1.9,0-2.7,0.2-3.3,0.5c-1.5,0.7-2.5,2.3-2.5,4.2
			c0,3.1,1.9,5.2,4.8,5.2H309.9z"/>
		<path fill="#FFFFFF" d="M316.3,756c2.9-0.5,4.2-3.8,4.2-10.3v-5.3h10.8V758h-2.4v-15.5h-6.1v3.3c0,8.3-2,12.1-6.5,12.4V756z"/>
		<path fill="#FFFFFF" d="M337,740.4h2.3V752c0,1.1-0.1,2.6-0.1,2.6h0.1c0.1-0.1,1.1-1.6,1.8-2.6l8.6-11.6h2.3V758h-2.3v-11.6
			c0-1,0.1-2.4,0.1-2.6h-0.1c0,0.2-1.1,1.6-1.8,2.6l-8.6,11.6H337V740.4z"/>
		<path fill="#FFFFFF" d="M357.7,740.4h2.4v7.5h10.3v-7.5h2.4V758h-2.4v-8h-10.3v8h-2.4V740.4z"/>
		<path fill="#FFFFFF" d="M386.5,740c2.3,0,4.9,0.8,6.4,2.5l-1.2,1.8c-1.2-1.3-3.2-2.2-5.1-2.2c-3.9,0-6.9,2.9-6.9,7.1
			c0,4.1,3,7,6.9,7c2,0,4.2-0.9,5.6-2.4l1.1,1.8c-1.5,1.7-4.2,2.8-6.9,2.8c-5.2,0-9.2-3.7-9.2-9.2C377.2,743.8,381.3,740,386.5,740z
			"/>
		<path fill="#FFFFFF" d="M397.4,740.4h2.4v6.7h3.8c3.2,0,6.2,1.3,6.2,5.5c0,3.2-2,5.4-6.2,5.4h-6.1V740.4z M403.3,756.1
			c2.8,0,4-1.4,4-3.5c0-2.1-1.2-3.6-4-3.6h-3.6v7.1H403.3z"/>
		<path fill="#FFFFFF" d="M413.8,740.4h2.4v7.5h2.8l5.3-7.5h2.8l-6.1,8.4v0.1l6.8,9.2h-2.9L419,750h-2.8v8.1h-2.4V740.4z"/>
		<path fill="#FFFFFF" d="M431.1,740.4h2.3V752c0,1.1-0.1,2.6-0.1,2.6h0.1c0.1-0.1,1.1-1.6,1.8-2.6l8.6-11.6h2.3V758h-2.3v-11.6
			c0-1,0.1-2.4,0.1-2.6h-0.1c0,0.2-1.1,1.6-1.8,2.6l-8.6,11.6h-2.3V740.4z"/>
		<path fill="#FFFFFF" d="M451.8,740.4h2.3V752c0,1.1-0.1,2.6-0.1,2.6h0.1c0.1-0.1,1.1-1.6,1.8-2.6l8.6-11.6h2.3V758h-2.3v-11.6
			c0-1,0.1-2.4,0.1-2.6h-0.1c0,0.2-1.1,1.6-1.8,2.6l-8.6,11.6h-2.3V740.4z M454.6,734v-0.6h2.1v0.5c0,1.6,1.2,2.4,2.6,2.4
			c1.3,0,2.6-0.8,2.6-2.5v-0.5h2v0.6c0,2.6-2.2,4.1-4.6,4.1S454.6,736.6,454.6,734z"/>
		<path fill="#FFFFFF" d="M481.2,740.4h6.4c3.6,0,5.8,1.6,5.8,4.5c0,1.8-0.9,3.3-2.7,3.9v0.1c2.3,0.5,3.6,2.2,3.6,4.2
			c0,3-2.4,4.9-6.4,4.9h-6.7V740.4z M487.3,748.1c2.4,0,3.6-1.1,3.6-3s-1.3-2.8-3.7-2.8h-3.6v5.8H487.3z M487.6,756.2
			c2.9,0,4.2-1.2,4.2-3.1c0-2.1-1.5-3.2-4.3-3.2h-4v6.3H487.6z"/>
		<path fill="#FFFFFF" d="M498.5,756c3-3.9,3.1-10.3,3.1-12.7v-2.9h10.9V756h2.5v6.2h-2.3V758h-14.1v4.2h-2.3V756H498.5z M510.1,756
			v-13.5H504v1c0,2.6-0.2,8.5-2.9,12.5H510.1z"/>
		<path fill="#FFFFFF" d="M526.7,740c2.3,0,4.9,0.8,6.4,2.5l-1.2,1.8c-1.2-1.3-3.2-2.2-5.1-2.2c-3.9,0-6.9,2.9-6.9,7.1
			c0,4.1,3,7,6.9,7c2,0,4.2-0.9,5.6-2.4l1.1,1.8c-1.5,1.7-4.2,2.8-6.9,2.8c-5.2,0-9.2-3.7-9.2-9.2C517.4,743.8,521.5,740,526.7,740z
			"/>
		<path fill="#FFFFFF" d="M537.6,740.4h14.7V758H550v-15.5h-10V758h-2.4V740.4z"/>
		<path fill="#FFFFFF" d="M557.8,755.1h2.9v2.9h-2.9V755.1z"/>
	</g>
</g>
<g>
	<g>
		<circle fill="#FFFFFF" cx="753.6" cy="660.8" r="12.3"/>
		<circle fill="none" cx="753.6" cy="660.8" r="44.9"/>
	</g>
	<g>
		<path fill="#FFFFFF" d="M737.1,853v-7.1h-25.6c-0.8,0-1.6,0-1.6,0v0.1c0,0,0.6,0.3,1.9,1.7l3.7,3.7l-1.3,1.3l-6.8-6.8v-1.9h29.6
			v-7h1.8v16H737.1z"/>
		<path fill="#FFFFFF" d="M728.6,834.4l-21.1-16.3v-1.8h20.6v-4.7h1.8v4.7h9v1.9h-9v16.2H728.6z M728.1,818.3h-14.7
			c-1.3,0-2.8-0.1-2.8-0.1v0.1c0,0,1.1,0.8,2.2,1.6l15.3,11.9h0.1V818.3z"/>
		<path fill="#FFFFFF" d="M723.2,806.5c-9.1,0-16.2-2.6-16.2-10.6c0-8,7.2-10.6,16.2-10.6c9.1,0,16.2,2.6,16.2,10.6
			C739.4,803.9,732.3,806.5,723.2,806.5z M723.2,787.3c-8.1,0-14.4,1.9-14.4,8.6c0,6.7,6.3,8.6,14.4,8.6c8.1,0,14.4-1.9,14.4-8.6
			C737.5,789.2,731.3,787.3,723.2,787.3z"/>
		<path fill="#FFFFFF" d="M723.2,779c-9.1,0-16.2-2.6-16.2-10.6c0-8,7.2-10.6,16.2-10.6c9.1,0,16.2,2.6,16.2,10.6
			C739.4,776.4,732.3,779,723.2,779z M723.2,759.9c-8.1,0-14.4,1.9-14.4,8.6c0,6.7,6.3,8.6,14.4,8.6c8.1,0,14.4-1.9,14.4-8.6
			C737.5,761.8,731.3,759.9,723.2,759.9z"/>
		<path fill="#FFFFFF" d="M716.4,738.6v-1.8l14.9-7.6c1.4-0.7,3.3-1.5,3.3-1.5v-0.1c0,0-1.8-0.8-3.3-1.5l-14.9-7.6v-1.8l22.4-1.8
			v1.9l-15.6,1.3c-1.1,0.1-3.9,0-3.9,0v0.1c0,0,1.3,0.4,3.2,1.5l13.7,7v1.9l-13.6,7c-1.8,0.9-3.3,1.5-3.3,1.5v0.1c0,0,2.8,0,3.9,0
			l15.6,1.3v1.9L716.4,738.6z"/>
		<line fill="none" stroke="#FFFFFF" stroke-width="1.7008" stroke-miterlimit="10" x1="753.6" y1="660.8" x2="753.6" y2="1199.9"/>
	</g>
	<g>
		<path fill="#FFFFFF" d="M491.9,650.5H504V665h-2v-12.8h-8.2V665h-2V650.5z"/>
		<path fill="#FFFFFF" d="M515.4,650.1c4.2,0,7.7,3.2,7.7,7.5c0,4.4-3.4,7.7-7.7,7.7c-4.2,0-7.7-3.3-7.7-7.7
			C507.7,653.4,511.1,650.1,515.4,650.1z M515.4,663.6c3.1,0,5.7-2.5,5.7-5.9c0-3.3-2.5-5.8-5.7-5.8c-3.1,0-5.6,2.5-5.6,5.8
			C509.7,661.1,512.3,663.6,515.4,663.6z"/>
		<path fill="#FFFFFF" d="M524.6,663.4c2.4-0.4,3.5-3.1,3.5-8.5v-4.4h8.9V665h-2v-12.8h-5v2.7c0,6.9-1.6,10-5.4,10.3V663.4z"/>
		<path fill="#FFFFFF" d="M541.5,662.6h2.4v2.4h-2.4V662.6z"/>
		<path fill="#FFFFFF" d="M556.1,644.7h11.5v1.8h-9.5v6.6h4.9c3.4,0,6,2,6,6c0,3.6-2.5,5.9-5.8,5.9h-7V644.7z M562.9,663.2
			c2.5,0,4.1-1.5,4.1-4.1c0-2.6-1.7-4.2-4.1-4.2h-4.7v8.3H562.9z"/>
		<path fill="#FFFFFF" d="M580.3,656.1h0.9v-0.4c0-2.8-1.5-3.8-3.6-3.8c-1.5,0-2.9,0.5-4.1,1.4l-0.9-1.5c1.2-1,3.2-1.6,5.1-1.6
			c3.5,0,5.4,1.9,5.4,5.6v9.3h-1.9v-1.7c0-0.7,0.1-1.2,0.1-1.2h-0.1c-0.8,1.8-2.6,3.3-4.9,3.3c-2.5,0-4.9-1.4-4.9-4.2
			C571.5,656.4,577.5,656.1,580.3,656.1z M576.7,663.7c2.8,0,4.5-2.9,4.5-5.4v-0.7h-0.8c-2.3,0-6.9,0.1-6.9,3.3
			C573.4,662.3,574.5,663.7,576.7,663.7z"/>
		<path fill="#FFFFFF" d="M587.7,650.5h1.9v1.5c0,0.6-0.1,1.1-0.1,1.1h0.1c0.9-1.9,2.8-3,5.1-3c3.9,0,6.3,3.1,6.3,7.6
			c0,4.6-2.7,7.6-6.5,7.6c-2.1,0-3.8-1.1-4.8-2.9h-0.1c0,0,0.1,0.5,0.1,1.3v7.1h-2V650.5z M594.2,663.6c2.6,0,4.7-2.1,4.7-5.8
			c0-3.6-1.9-5.8-4.6-5.8c-2.4,0-4.7,1.7-4.7,5.9C589.6,660.7,591.2,663.6,594.2,663.6z"/>
		<path fill="#FFFFFF" d="M602.7,663.4c2.4-0.4,3.5-3.1,3.5-8.5v-4.4h8.9V665h-2v-12.8h-5v2.7c0,6.9-1.6,10-5.4,10.3V663.4z"/>
		<path fill="#FFFFFF" d="M626,650.1c4,0,6.1,3.1,6.1,6.7c0,0.3,0,0.7-0.1,1h-11.2c0.1,3.7,2.6,5.8,5.6,5.8c1.6,0,3.2-0.7,4.4-1.7
			l0.9,1.5c-1.4,1.2-3.5,2-5.4,2c-4.3,0-7.6-3.1-7.6-7.6C618.8,653,622,650.1,626,650.1z M630,656.3c-0.1-3-2-4.5-4.1-4.5
			c-2.4,0-4.5,1.6-5,4.5H630z"/>
		<path fill="#FFFFFF" d="M641.1,646.5l5.4-2.5l0.7,1.6l-5.6,2.6c-3.3,1.6-4.4,3.6-4.7,6.7h0.1c1.3-2.3,3.3-3.1,5.4-3.1
			c3.6,0,6.2,2.5,6.2,6.7c0,4-2.7,6.8-6.6,6.8c-4.8,0-6.8-3.7-6.8-8.6C635.1,651.9,636.3,648.7,641.1,646.5z M641.9,663.6
			c2.6,0,4.7-1.9,4.7-5.1c0-3.2-2.1-5.1-4.5-5.1c-2.8,0-4.8,2.2-4.8,5C637.2,661.8,639.4,663.6,641.9,663.6z"/>
		<path fill="#FFFFFF" d="M660,656.1h0.9v-0.4c0-2.8-1.5-3.8-3.6-3.8c-1.5,0-2.9,0.5-4.1,1.4l-0.9-1.5c1.2-1,3.2-1.6,5.1-1.6
			c3.5,0,5.4,1.9,5.4,5.6v9.3h-1.9v-1.7c0-0.7,0.1-1.2,0.1-1.2h-0.1c-0.8,1.8-2.6,3.3-4.9,3.3c-2.5,0-4.9-1.4-4.9-4.2
			C651.1,656.4,657.2,656.1,660,656.1z M656.4,663.7c2.8,0,4.4-2.9,4.4-5.4v-0.7H660c-2.3,0-6.9,0.1-6.9,3.3
			C653.1,662.3,654.2,663.7,656.4,663.7z"/>
		<path fill="#FFFFFF" d="M667.3,650.5h1.9v12.8h6.2v-12.8h1.9v12.8h6.2v-12.8h1.9V665h-18.2V650.5z"/>
		<path fill="#FFFFFF" d="M690.2,650.5h2v6.2h2.3l4.4-6.2h2.3l-5.1,6.9v0.1l5.6,7.6h-2.4l-4.8-6.6h-2.3v6.6h-2V650.5z"/>
		<path fill="#FFFFFF" d="M711.9,656.1h0.9v-0.4c0-2.8-1.5-3.8-3.6-3.8c-1.5,0-2.9,0.5-4.1,1.4l-0.9-1.5c1.2-1,3.2-1.6,5.1-1.6
			c3.5,0,5.4,1.9,5.4,5.6v9.3h-1.9v-1.7c0-0.7,0.1-1.2,0.1-1.2h-0.1c-0.8,1.8-2.6,3.3-4.9,3.3c-2.5,0-4.9-1.4-4.9-4.2
			C703.1,656.4,709.1,656.1,711.9,656.1z M708.3,663.7c2.8,0,4.4-2.9,4.4-5.4v-0.7h-0.8c-2.3,0-6.9,0.1-6.9,3.3
			C705.1,662.3,706.1,663.7,708.3,663.7z"/>
	</g>
</g>
<g>
	<g>
		<circle fill="#FFFFFF" cx="843.4" cy="604.6" r="17.5"/>
		<circle fill="none" cx="843.4" cy="604.6" r="44.9"/>
	</g>
	<g>
		<path fill="#FFFFFF" d="M830.7,785.3v-6.9h-24.8c-0.8,0-1.5,0-1.5,0v0.1c0,0,0.6,0.3,1.9,1.6l3.6,3.6l-1.3,1.3l-6.6-6.6v-1.9h28.7
			v-6.7h1.7v15.5H830.7z"/>
		<path fill="#FFFFFF" d="M827.4,764.1c1.7-1.1,3.7-3.3,3.7-7c0-4.7-3.4-8.4-8-8.4c-4.6,0-8,3.7-8,8.4c0,2,0.7,4.3,1.8,5.9l-0.5,1.4
			l-14.5-1.7v-14.1h1.7V761l9.1,1.1c1.2,0.1,1.9,0.3,1.9,0.3v-0.1c-0.7-1-1.4-3.1-1.4-5.2c0-5.8,4.4-10.4,9.9-10.4
			c5.5,0,9.8,4.7,9.8,10.4c0,3.4-1.6,6.7-4.4,8.6L827.4,764.1z"/>
		<path fill="#FFFFFF" d="M817.2,741.3c-8.8,0-15.7-2.5-15.7-10.3c0-7.7,7-10.3,15.7-10.3c8.8,0,15.7,2.5,15.7,10.3
			C832.9,738.7,826,741.3,817.2,741.3z M817.2,722.7c-7.8,0-13.9,1.8-13.9,8.3c0,6.5,6.1,8.3,13.9,8.3c7.9,0,13.9-1.8,13.9-8.3
			C831.1,724.5,825.1,722.7,817.2,722.7z"/>
		<path fill="#FFFFFF" d="M817.2,714.7c-8.8,0-15.7-2.5-15.7-10.3c0-7.7,7-10.3,15.7-10.3c8.8,0,15.7,2.5,15.7,10.3
			C832.9,712.1,826,714.7,817.2,714.7z M817.2,696.1c-7.8,0-13.9,1.8-13.9,8.3c0,6.5,6.1,8.3,13.9,8.3c7.9,0,13.9-1.8,13.9-8.3
			C831.1,697.9,825.1,696.1,817.2,696.1z"/>
		<path fill="#FFFFFF" d="M810.7,675.5v-1.7l14.4-7.3c1.4-0.7,3.2-1.5,3.2-1.5v-0.1c0,0-1.7-0.7-3.2-1.5l-14.4-7.4v-1.7l21.7-1.7
			v1.8l-15.1,1.2c-1,0.1-3.7,0-3.7,0v0.1c0,0,1.2,0.4,3.1,1.4L830,664v1.9l-13.2,6.8c-1.7,0.9-3.2,1.4-3.2,1.4v0.1c0,0,2.7,0,3.7,0
			l15.1,1.2v1.8L810.7,675.5z"/>
		<line fill="none" stroke="#FFFFFF" stroke-width="1.7008" stroke-miterlimit="10" x1="843.4" y1="604.6" x2="843.4" y2="1200"/>
	</g>
	<g>
		<path fill="#FFFFFF" d="M614,588.4h14.7V606h-2.4v-15.5h-10V606H614V588.4z"/>
		<path fill="#FFFFFF" d="M642.5,588c5.1,0,9.3,3.9,9.3,9.1c0,5.3-4.2,9.3-9.3,9.3s-9.3-4-9.3-9.3C633.2,591.9,637.3,588,642.5,588z
			 M642.5,604.3c3.8,0,6.9-3,6.9-7.1c0-4-3.1-7-6.9-7s-6.8,3-6.8,7C635.7,601.3,638.7,604.3,642.5,604.3z"/>
		<path fill="#FFFFFF" d="M653.6,604c2.9-0.5,4.2-3.8,4.2-10.3v-5.3h10.8V606h-2.4v-15.5h-6.1v3.3c0,8.3-2,12.1-6.5,12.4V604z"/>
		<path fill="#FFFFFF" d="M674.1,603.1h2.9v2.9h-2.9V603.1z"/>
		<path fill="#FFFFFF" d="M694.5,586.4v-5H708V606h-2.5v-22.4h-8.7v2.8c0,11.7-1.5,19.4-8.2,19.9V604
			C693.3,603.4,694.5,596.9,694.5,586.4z"/>
		<path fill="#FFFFFF" d="M714.2,588.4h2.3V600c0,1.1-0.1,2.6-0.1,2.6h0.1c0.1-0.1,1.1-1.6,1.8-2.6l8.6-11.6h2.3V606h-2.3v-11.6
			c0-1,0.1-2.4,0.1-2.6h-0.1c0,0.2-1.1,1.6-1.8,2.6l-8.6,11.6h-2.3V588.4z"/>
		<path fill="#FFFFFF" d="M742.9,588c2.3,0,4.9,0.8,6.4,2.5l-1.2,1.8c-1.2-1.3-3.2-2.2-5.1-2.2c-3.9,0-6.9,2.9-6.9,7.1
			c0,4.1,3,7,6.9,7c2,0,4.2-0.9,5.6-2.4l1.1,1.8c-1.5,1.7-4.2,2.8-6.9,2.8c-5.2,0-9.2-3.7-9.2-9.2C733.7,591.8,737.7,588,742.9,588z
			"/>
		<path fill="#FFFFFF" d="M756.3,600c0.4-0.6,0.8-1.1,0.8-1.1v-0.1c-2.1-0.4-4.1-2.2-4.1-5.1c0-3.5,2.6-5.4,6.2-5.4h6.2V606h-2.4
			v-6.8h-3.6l-4.6,6.8H752L756.3,600z M763.1,597.4v-7.2h-3.4c-2.6,0-4.2,1-4.2,3.5c0,2.4,1.8,3.6,4.1,3.6H763.1z"/>
		<path fill="#FFFFFF" d="M770,594v-5.6h2.3v5.4c0,1.9,0.6,3.7,4,3.7c2,0,3.6-0.8,4.4-1.4v-7.6h2.4V606h-2.4v-6.7
			c0-0.5,0.1-1.1,0.1-1.1h-0.1c-1.2,0.7-3.2,1.4-4.8,1.4C771.8,599.6,770,597.5,770,594z"/>
		<path fill="#FFFFFF" d="M797.9,595.2h1.1v-0.5c0-3.4-1.9-4.5-4.3-4.5c-1.8,0-3.6,0.6-5,1.7l-1.1-1.8c1.4-1.2,3.9-2,6.2-2
			c4.2,0,6.6,2.3,6.6,6.8V606H799V604c0-0.9,0.1-1.5,0.1-1.5h-0.1c-0.9,2.1-3.1,4-6,4c-3,0-6-1.8-6-5.1
			C787.2,595.5,794.5,595.2,797.9,595.2z M793.5,604.5c3.4,0,5.4-3.5,5.4-6.6v-0.8h-1c-2.7,0-8.3,0.1-8.3,4
			C789.6,602.8,790.9,604.5,793.5,604.5z"/>
	</g>
</g>
<g>
	<g>
		<circle fill="#FFFFFF" cx="948.4" cy="456.2" r="17.5"/>
		<circle fill="none" cx="948.4" cy="456.2" r="44.9"/>
	</g>
	<g>
		<path fill="#FFFFFF" d="M934.7,714.7v-7.6h-27.1c-0.9,0-1.7,0-1.7,0v0.1c0,0,0.6,0.3,2,1.8l3.9,3.9l-1.4,1.4l-7.2-7.2v-2h31.3
			v-7.4h1.9v17H934.7z"/>
		<path fill="#FFFFFF" d="M934,690.5c0.6-1,1.2-2.9,1.2-4.9c0-7.7-8-11.6-15.3-12.1v0.1c2.8,1.9,4.6,5.5,4.6,9.4
			c0,5.8-4.1,10.2-10.6,10.2c-7.2,0-11.1-4.7-11.1-10.2c0-7.4,7-11.6,15.5-11.6c8.1,0,18.9,4,18.9,14.3c0,1.9-0.4,4-1.3,5.8
			L934,690.5z M915.9,673.7c-4.6,0-11.1,3.6-11.1,9.3c0,5.1,3.8,8.1,9.1,8.1c5.3,0,8.6-3.4,8.6-8.2
			C922.5,677.8,918.9,673.7,915.9,673.7z"/>
		<path fill="#FFFFFF" d="M931.1,664.2c2.1-1.9,4.1-5.3,4.1-8.9c0-4.2-3.3-8.3-8.2-8.3c-5.2,0-7.9,4.4-7.9,8.9v2.3l-1.4,0.6
			l-10.9-9.3c-0.9-0.7-1.5-1.5-1.5-1.5h-0.1c0,0,0.1,0.9,0.1,2.6v13.6h-1.9v-19h1.4l12.4,10.7c0-4,2-11,9.8-11
			c5.7,0,10.2,4.8,10.2,10.5c0,3.8-1.8,7.7-4.6,10.4L931.1,664.2z"/>
		<path fill="#FFFFFF" d="M902.8,624.4c0-2,0.4-4,1.3-5.8l1.9,1c-0.8,1.3-1.2,3.2-1.2,5c0,7.6,8,11.5,15.3,12v-0.1
			c-2.8-1.9-4.6-5.5-4.6-9.4c0-5.8,4-10.2,10.7-10.2c7,0,10.9,4.7,10.9,10.2c0,7.4-7.1,11.6-15.5,11.6
			C913.6,638.6,902.8,634.6,902.8,624.4z M926.2,618.9c-5.4,0-8.6,3.4-8.6,8.2c0,4.6,3,9.2,7.1,9.2c3.3,0,10.6-3,10.6-9.5
			C935.2,622.1,931.4,618.9,926.2,618.9z"/>
		<path fill="#FFFFFF" d="M912.9,597.1v-1.9l15.7-8c1.5-0.8,3.5-1.6,3.5-1.6v-0.1c0,0-1.9-0.8-3.5-1.6l-15.7-8.1v-1.9l23.7-1.9v2
			l-16.5,1.3c-1.1,0.1-4.1,0-4.1,0v0.1c0,0,1.3,0.5,3.4,1.6l14.5,7.5v2l-14.4,7.5c-1.9,1-3.5,1.6-3.5,1.6v0.1c0,0,2.9,0,4.1,0
			l16.5,1.3v2L912.9,597.1z"/>
		<line fill="none" stroke="#FFFFFF" stroke-width="1.7008" stroke-miterlimit="10" x1="948.4" y1="456.2" x2="948.4" y2="1200"/>
	</g>
	<g>
		<path fill="#FFFFFF" d="M719.3,440h12.4v2.4h-9.6v18.3h-2.8V440z"/>
		<path fill="#FFFFFF" d="M733.3,457.3h3.4v3.4h-3.4V457.3z"/>
		<path fill="#FFFFFF" d="M754.1,431.7h22.1v29h-2.8v-26.4H757v26.4h-2.8V431.7z"/>
		<path fill="#FFFFFF" d="M783.4,431.7h3v3.5h-3V431.7z M783.5,440h2.8v20.7h-2.8V440z"/>
		<path fill="#FFFFFF" d="M793,440h17.3v20.7h-2.8v-18.2h-11.7v18.2H793V440z"/>
		<path fill="#FFFFFF" d="M816.7,447.7h11.7v2.6h-11.7V447.7z"/>
		<path fill="#FFFFFF" d="M835.6,431.7h2.8v29h-2.8V431.7z"/>
		<path fill="#FFFFFF" d="M845.7,440h7.5c4.2,0,6.8,1.9,6.8,5.3c0,2.1-1.1,3.8-3.1,4.6v0.1c2.7,0.5,4.2,2.6,4.2,5
			c0,3.6-2.8,5.8-7.5,5.8h-7.9V440z M852.9,448.9c2.8,0,4.2-1.3,4.2-3.5c0-2.2-1.5-3.3-4.4-3.3h-4.2v6.8H852.9z M853.2,458.5
			c3.4,0,5-1.4,5-3.7c0-2.4-1.8-3.7-5-3.7h-4.7v7.4H853.2z"/>
		<path fill="#FFFFFF" d="M877.2,447.9h1.2v-0.6c0-4-2.2-5.4-5.1-5.4c-2.1,0-4.2,0.7-5.9,2l-1.3-2.1c1.6-1.4,4.6-2.3,7.3-2.3
			c5,0,7.7,2.8,7.7,8v13.3h-2.7v-2.4c0-1,0.1-1.7,0.1-1.7h-0.1c-1.1,2.5-3.7,4.7-7,4.7c-3.5,0-7-2.1-7-6.1
			C864.6,448.3,873.3,447.9,877.2,447.9z M872.1,458.8c4,0,6.3-4.1,6.3-7.7v-0.9h-1.2c-3.2,0-9.8,0.1-9.8,4.7
			C867.5,456.8,869,458.8,872.1,458.8z"/>
		<path fill="#FFFFFF" d="M887.7,440h2.8v8.9h12.1V440h2.8v20.7h-2.8v-9.4h-12.1v9.4h-2.8V440z"/>
	</g>
</g>
<g>
	<g>
		<circle fill="#FFFFFF" cx="1025.3" cy="569.7" r="12.3"/>
		<circle fill="none" cx="1025.3" cy="569.7" r="44.9"/>
	</g>
	<g>
		<path fill="#FFFFFF" d="M1012.2,747.3v-6.9h-24.7c-0.8,0-1.5,0-1.5,0v0.1c0,0,0.6,0.3,1.9,1.6l3.6,3.6l-1.3,1.3l-6.6-6.6v-1.9
			h28.7v-6.7h1.7v15.5H1012.2z"/>
		<path fill="#FFFFFF" d="M983,714.8c0-1.9,0.4-3.6,1.2-5.3l1.7,0.9c-0.7,1.2-1.1,3-1.1,4.6c0,6.9,7.3,10.5,14,10.9v-0.1
			c-2.6-1.7-4.2-5-4.2-8.6c0-5.3,3.7-9.3,9.8-9.3c6.4,0,10,4.3,10,9.3c0,6.7-6.5,10.6-14.2,10.6C992.8,727.8,983,724.1,983,714.8z
			 M1004.3,709.8c-4.9,0-7.9,3.1-7.9,7.5c0,4.2,2.7,8.4,6.5,8.4c3,0,9.7-2.7,9.7-8.7C1012.6,712.6,1009.1,709.8,1004.3,709.8z"/>
		<path fill="#FFFFFF" d="M998.7,702.3c-8.8,0-15.7-2.5-15.7-10.2c0-7.7,6.9-10.2,15.7-10.2c8.8,0,15.7,2.5,15.7,10.2
			C1014.4,699.8,1007.5,702.3,998.7,702.3z M998.7,683.7c-7.8,0-13.9,1.8-13.9,8.3c0,6.5,6.1,8.3,13.9,8.3c7.9,0,13.9-1.8,13.9-8.3
			C1012.6,685.6,1006.6,683.7,998.7,683.7z"/>
		<path fill="#FFFFFF" d="M998.7,675.7c-8.8,0-15.7-2.5-15.7-10.2c0-7.7,6.9-10.2,15.7-10.2c8.8,0,15.7,2.5,15.7,10.2
			C1014.4,673.2,1007.5,675.7,998.7,675.7z M998.7,657.2c-7.8,0-13.9,1.8-13.9,8.3c0,6.5,6.1,8.3,13.9,8.3c7.9,0,13.9-1.8,13.9-8.3
			C1012.6,659,1006.6,657.2,998.7,657.2z"/>
		<path fill="#FFFFFF" d="M992.2,636.6v-1.7l14.4-7.3c1.4-0.7,3.2-1.5,3.2-1.5V626c0,0-1.7-0.7-3.2-1.5l-14.4-7.4v-1.7l21.7-1.7v1.8
			l-15.1,1.2c-1,0.1-3.7,0-3.7,0v0.1c0,0,1.2,0.4,3.1,1.4l13.3,6.8v1.9l-13.2,6.8c-1.7,0.9-3.2,1.4-3.2,1.4v0.1c0,0,2.7,0,3.7,0
			l15.1,1.2v1.8L992.2,636.6z"/>
		<line fill="none" stroke="#FFFFFF" stroke-width="1.7008" stroke-miterlimit="10" x1="1025.3" y1="569.7" x2="1025.3" y2="1200"/>
	</g>
	<g>
		<path fill="#FFFFFF" d="M1062.9,554.7c4.4,0,8,3.4,8,7.8c0,4.6-3.6,8-8,8c-4.4,0-7.9-3.4-7.9-8
			C1055,558,1058.5,554.7,1062.9,554.7z M1062.9,568.6c3.2,0,5.9-2.6,5.9-6.1c0-3.4-2.6-6-5.9-6c-3.2,0-5.8,2.6-5.8,6
			C1057.1,566,1059.7,568.6,1062.9,568.6z"/>
		<path fill="#FFFFFF" d="M1073.9,566.9c0.6,0.6,2,1.9,4,1.9c1.8,0,3.6-0.9,3.6-2.9c0-1.7-1.3-2.7-3.7-2.7h-1.8v-1.6h1.6
			c2,0,3.4-0.8,3.4-2.5c0-1.7-1.3-2.5-3.1-2.5c-1.5,0-2.7,0.5-3.7,1.3l-0.9-1.4c1-0.9,2.7-1.6,4.9-1.6c2.8,0,4.9,1.3,4.9,4
			c0,1.9-1,2.9-2.3,3.4v0.1c1.6,0.4,2.8,1.6,2.8,3.6c0,3.1-2.7,4.6-5.6,4.6c-2.4,0-4.1-1.1-5.2-2.2L1073.9,566.9z"/>
		<path fill="#FFFFFF" d="M1087.3,567.6h2.5v2.5h-2.5V567.6z"/>
		<path fill="#FFFFFF" d="M1102.4,549h2.1v9.1h3.5l5.7-9.1h2.4l-6.3,9.9v0.1l6.7,11h-2.4l-6-10.1h-3.5v10.1h-2.1V549z"/>
		<path fill="#FFFFFF" d="M1119.3,555h1.9v1.6c0,0.7-0.1,1.2-0.1,1.2h0.1c0.9-1.9,2.9-3.1,5.2-3.1c4.1,0,6.6,3.2,6.6,7.9
			c0,4.8-2.8,7.9-6.7,7.9c-2.1,0-4-1.1-5-3h-0.1c0,0,0.1,0.5,0.1,1.3v7.3h-2V555z M1126.1,568.6c2.7,0,4.9-2.2,4.9-6
			c0-3.7-2-6-4.8-6c-2.5,0-4.9,1.8-4.9,6.1C1121.3,565.6,1123,568.6,1126.1,568.6z"/>
		<path fill="#FFFFFF" d="M1137,555h2v9.9c0,0.9-0.1,2.2-0.1,2.2h0.1c0.1-0.1,1-1.4,1.6-2.2l7.4-9.9h1.9v15.1h-2v-9.9
			c0-0.9,0.1-2.1,0.1-2.2h-0.1c0,0.1-1,1.3-1.5,2.2l-7.4,9.9h-1.9V555z"/>
		<path fill="#FFFFFF" d="M1154.7,555h5.4c3.1,0,5,1.3,5,3.8c0,1.6-0.8,2.8-2.3,3.3v0.1c1.9,0.4,3.1,1.9,3.1,3.6
			c0,2.6-2.1,4.2-5.4,4.2h-5.7V555z M1159.9,561.6c2,0,3.1-1,3.1-2.6s-1.1-2.4-3.2-2.4h-3.1v5H1159.9z M1160.1,568.5
			c2.5,0,3.6-1,3.6-2.7c0-1.8-1.3-2.7-3.7-2.7h-3.4v5.4H1160.1z"/>
		<path fill="#FFFFFF" d="M1177.6,560.8h0.9v-0.4c0-2.9-1.6-3.9-3.7-3.9c-1.5,0-3.1,0.5-4.3,1.4l-0.9-1.6c1.2-1,3.3-1.7,5.3-1.7
			c3.6,0,5.6,2,5.6,5.8v9.6h-1.9v-1.8c0-0.7,0.1-1.3,0.1-1.3h-0.1c-0.8,1.8-2.7,3.4-5.1,3.4c-2.5,0-5.1-1.5-5.1-4.4
			C1168.4,561.1,1174.7,560.8,1177.6,560.8z M1173.9,568.7c2.9,0,4.6-3,4.6-5.6v-0.7h-0.9c-2.3,0-7.1,0.1-7.1,3.4
			C1170.5,567.3,1171.6,568.7,1173.9,568.7z"/>
		<path fill="#FFFFFF" d="M1185.2,555h5.4c3.1,0,5,1.3,5,3.8c0,1.6-0.8,2.8-2.3,3.3v0.1c1.9,0.4,3.1,1.9,3.1,3.6
			c0,2.6-2.1,4.2-5.4,4.2h-5.7V555z M1190.5,561.6c2,0,3.1-1,3.1-2.6s-1.1-2.4-3.2-2.4h-3.1v5H1190.5z M1190.7,568.5
			c2.5,0,3.6-1,3.6-2.7c0-1.8-1.3-2.7-3.7-2.7h-3.4v5.4H1190.7z"/>
		<path fill="#FFFFFF" d="M1206.7,554.7c4.2,0,6.3,3.2,6.3,6.9c0,0.3,0,0.7-0.1,1h-11.6c0.1,3.8,2.7,6,5.8,6c1.6,0,3.4-0.7,4.6-1.8
			l0.9,1.6c-1.4,1.3-3.6,2.1-5.6,2.1c-4.5,0-7.9-3.2-7.9-7.9C1199.3,557.6,1202.6,554.7,1206.7,554.7z M1210.9,561
			c-0.1-3.1-2-4.7-4.3-4.7c-2.5,0-4.7,1.6-5.2,4.7H1210.9z"/>
	</g>
</g>
</svg>
