<?xml version="1.0" encoding="utf-8"?>
<!-- Generator: Adobe Illustrator 22.0.1, SVG Export Plug-In . SVG Version: 6.00 Build 0)  -->
<svg version="1.1" baseProfile="tiny" id="Layer_1" xmlns="http://www.w3.org/2000/svg" xmlns:xlink="http://www.w3.org/1999/xlink"
	 x="0px" y="0px" viewBox="0 0 1600 2168" xml:space="preserve">
<polyline fill="none" stroke="#FFFFFF" stroke-width="2.3537" stroke-miterlimit="10" points="385.4,1184.2 575.2,1031.8 
	748.2,929.3 900.3,848 1036.4,720 1186.2,837.8 1602,1026.3 "/>
<g>
	<g>
		<circle fill="#FFFFFF" cx="385.4" cy="1184.2" r="18.2"/>
		<circle fill="none" cx="385.4" cy="1184.2" r="46.6"/>
	</g>
	<g>
		<path fill="#FFFFFF" d="M367.4,1355.3c2.2-2,4.3-5.5,4.3-9.3c0-4.4-3.4-8.7-8.5-8.7c-5.4,0-8.3,4.5-8.3,9.2v2.4l-1.5,0.6
			l-11.3-9.7c-0.9-0.7-1.6-1.5-1.6-1.5h-0.1c0,0,0.1,0.9,0.1,2.7v14.2h-2v-19.8h1.5l12.9,11.2c0-4.2,2.1-11.4,10.2-11.4
			c5.9,0,10.6,5,10.6,11c0,4-1.9,8-4.8,10.8L367.4,1355.3z"/>
		<path fill="#FFFFFF" d="M367.4,1327.4c2-1.3,4.3-3.8,4.3-8c0-5.4-3.9-9.6-9-9.6c-5.2,0-9.1,4.2-9.1,9.6c0,2.3,0.8,4.9,2.1,6.7
			l-0.5,1.6l-16.5-2v-16.1h2v14.2l10.3,1.2c1.3,0.1,2.1,0.3,2.1,0.3v-0.1c-0.7-1.1-1.6-3.6-1.6-5.9c0-6.6,5-11.8,11.2-11.8
			s11.1,5.3,11.1,11.8c0,3.9-1.8,7.6-5,9.7L367.4,1327.4z"/>
		<path fill="#FFFFFF" d="M371.3,1301.9c-12,0-13.4-18.4-23.9-18.4c-4.2,0-7.4,3.1-7.4,8.1c0,3.5,2,6.6,4.9,8.4l-1.1,1.6
			c-3.4-1.9-5.9-5.8-5.9-10c0-6.8,4.5-10.2,9.5-10.2c11.8,0,13.3,18.4,23.7,18.4v-18.9h2v21.1
			C372.5,1301.8,371.9,1301.9,371.3,1301.9z"/>
		<path fill="#FFFFFF" d="M348.4,1259.7v-2l16.4-8.4c1.6-0.8,3.6-1.7,3.6-1.7v-0.1c0,0-2-0.8-3.6-1.7l-16.4-8.4v-2l24.7-2v2.1
			L356,1237c-1.2,0.1-4.3,0.1-4.3,0.1v0.1c0,0,1.4,0.5,3.6,1.6l15.1,7.8v2.1l-15,7.8c-2,1-3.7,1.6-3.7,1.6v0.1c0,0,3.1,0,4.3,0.1
			l17.2,1.4v2.1L348.4,1259.7z"/>
		<line fill="none" stroke="#FFFFFF" stroke-width="1.7653" stroke-miterlimit="10" x1="385.4" y1="1184.2" x2="385.4" y2="2168"/>
	</g>
	<g>
		<path fill="#FFFFFF" d="M226.3,1098.9c3.3,0,7,1.2,9.3,3.6l-1.8,2.6c-1.8-1.8-4.6-3.1-7.4-3.1c-5.5,0-9.9,4.2-9.9,10.2
			c0,5.9,4.3,10.1,10,10.1c2.9,0,6.1-1.3,8.1-3.5l1.6,2.6c-2.2,2.5-6,4-9.9,4c-7.5,0-13.3-5.4-13.3-13.2
			C213,1104.3,218.8,1098.9,226.3,1098.9z"/>
		<path fill="#FFFFFF" d="M241.6,1120.6h4.1v4.2h-4.1V1120.6z"/>
		<path fill="#FFFFFF" d="M265.8,1121.6c5.3-7.1,5.9-17.1,5.9-25.3v-6.9h19.4v32.2h4v10.2h-3.3v-7h-26.2v7h-3.3v-10.2H265.8z
			 M287.7,1121.6v-29.1h-12.6v3.9c0,8.5-0.9,18.5-5.5,25.2H287.7z"/>
		<path fill="#FFFFFF" d="M300.7,1089.4h3.7v4.3h-3.7V1089.4z M300.9,1099.5h3.4v25.3h-3.4V1099.5z"/>
		<path fill="#FFFFFF" d="M309.4,1121.9c4.2-0.7,6-5.4,6-14.8v-7.6h15.5v25.3h-3.4v-22.3h-8.7v4.7c0,12-2.9,17.3-9.4,17.8V1121.9z"
			/>
		<path fill="#FFFFFF" d="M350.7,1098.9c7.4,0,13.4,5.6,13.4,13.1c0,7.6-6,13.4-13.4,13.4c-7.4,0-13.3-5.7-13.3-13.4
			C337.4,1104.5,343.3,1098.9,350.7,1098.9z M350.7,1122.2c5.4,0,9.9-4.3,9.9-10.3c0-5.7-4.4-10.1-9.9-10.1c-5.4,0-9.8,4.3-9.8,10.1
			C340.9,1117.9,345.3,1122.2,350.7,1122.2z"/>
		<path fill="#FFFFFF" d="M370.5,1099.5h9.2c5.1,0,8.3,2.3,8.3,6.4c0,2.6-1.4,4.7-3.8,5.6v0.1c3.3,0.7,5.1,3.1,5.1,6.1
			c0,4.4-3.5,7.1-9.2,7.1h-9.7V1099.5z M379.3,1110.4c3.4,0,5.2-1.6,5.2-4.3c0-2.7-1.8-4-5.4-4h-5.2v8.3H379.3z M379.7,1122.1
			c4.2,0,6.1-1.8,6.1-4.5c0-3-2.2-4.6-6.1-4.6h-5.7v9.1H379.7z"/>
		<path fill="#FFFFFF" d="M406.6,1098.9c7,0,10.6,5.4,10.6,11.7c0,0.6-0.1,1.2-0.1,1.7h-19.4c0.2,6.4,4.6,10,9.8,10
			c2.8,0,5.6-1.2,7.7-3l1.6,2.6c-2.4,2.2-6,3.5-9.4,3.5c-7.5,0-13.3-5.4-13.3-13.2C394,1103.8,399.7,1098.9,406.6,1098.9z
			 M413.7,1109.5c-0.2-5.3-3.4-7.8-7.2-7.8c-4.2,0-7.9,2.8-8.7,7.8H413.7z"/>
	</g>
</g>
<g>
	<g>
		<circle fill="#FFFFFF" cx="575.2" cy="1031.8" r="18.2"/>
		<circle fill="none" cx="575.2" cy="1031.8" r="46.6"/>
	</g>
	<g>
		<path fill="#FFFFFF" d="M555,1233v-7.1h-25.4c-0.8,0-1.6,0-1.6,0v0.1c0,0,0.6,0.3,1.9,1.6l3.7,3.7l-1.3,1.3l-6.8-6.7v-1.9H555
			v-6.9h1.8v15.9H555z"/>
		<path fill="#FFFFFF" d="M541.2,1212.4c-9,0-16.1-2.6-16.1-10.5c0-7.9,7.1-10.5,16.1-10.5c9,0,16.1,2.6,16.1,10.5
			C557.3,1209.8,550.2,1212.4,541.2,1212.4z M541.2,1193.4c-8,0-14.2,1.9-14.2,8.5c0,6.6,6.2,8.5,14.2,8.5c8.1,0,14.2-1.9,14.2-8.5
			C555.4,1195.2,549.3,1193.4,541.2,1193.4z"/>
		<path fill="#FFFFFF" d="M551.6,1184.1c1.8-1.2,3.8-3.4,3.8-7.2c0-4.8-3.5-8.6-8.1-8.6c-4.7,0-8.2,3.8-8.2,8.6c0,2,0.7,4.4,1.9,6
			l-0.5,1.4l-14.8-1.8v-14.5h1.8v12.8l9.3,1.1c1.2,0.1,1.9,0.3,1.9,0.3v-0.1c-0.7-1-1.4-3.2-1.4-5.3c0-6,4.5-10.6,10.1-10.6
			s10,4.8,10,10.6c0,3.5-1.6,6.8-4.5,8.8L551.6,1184.1z"/>
		<path fill="#FFFFFF" d="M541.2,1160.7c-9,0-16.1-2.6-16.1-10.5c0-7.9,7.1-10.5,16.1-10.5c9,0,16.1,2.6,16.1,10.5
			C557.3,1158.1,550.2,1160.7,541.2,1160.7z M541.2,1141.7c-8,0-14.2,1.9-14.2,8.5c0,6.6,6.2,8.5,14.2,8.5c8.1,0,14.2-1.9,14.2-8.5
			C555.4,1143.6,549.3,1141.7,541.2,1141.7z"/>
		<path fill="#FFFFFF" d="M534.5,1120.7v-1.8l14.7-7.5c1.4-0.7,3.2-1.5,3.2-1.5v-0.1c0,0-1.8-0.8-3.2-1.5l-14.7-7.6v-1.8l22.2-1.8
			v1.9l-15.4,1.2c-1.1,0.1-3.8,0-3.8,0v0.1c0,0,1.2,0.4,3.2,1.5l13.6,7v1.9l-13.5,7c-1.8,0.9-3.3,1.5-3.3,1.5v0.1c0,0,2.8,0,3.8,0
			l15.4,1.2v1.9L534.5,1120.7z"/>
		<line fill="none" stroke="#FFFFFF" stroke-width="1.7653" stroke-miterlimit="10" x1="575.2" y1="1031.8" x2="575.1" y2="2168"/>
	</g>
	<g>
		<path fill="#FFFFFF" d="M210.1,1009.8c0.5-0.8,0.8-1.2,0.8-1.2v-0.1c-4.1-1.2-6.1-4.3-6.1-8.5c0-3.7,1.8-6.3,4.4-7.5
			c1.2-0.6,2.6-0.9,5.5-0.9h8.8v30h-3v-12.6H214l-7.5,12.6H203L210.1,1009.8z M220.6,1006.3v-12.1H215c-2.3,0-3.2,0.2-4,0.6
			c-1.9,0.9-3,2.9-3,5.2c0,3.8,2.3,6.3,5.9,6.3H220.6z"/>
		<path fill="#FFFFFF" d="M228.5,1019.1c3.6-0.6,5.1-4.6,5.1-12.5v-6.5h13.1v21.4h-2.9v-18.9h-7.4v4c0,10.1-2.4,14.7-7.9,15.1
			V1019.1z"/>
		<path fill="#FFFFFF" d="M253.7,1000.1h2.8v14.1c0,1.3-0.1,3.1-0.1,3.2h0.1c0.1-0.2,1.4-2,2.2-3.2l10.5-14.1h2.8v21.4h-2.9v-14.1
			c0-1.2,0.1-2.9,0.1-3.1h-0.1c0,0.2-1.4,1.9-2.2,3.1l-10.5,14.1h-2.8V1000.1z"/>
		<path fill="#FFFFFF" d="M278.8,1000.1h2.9v9.2h12.5v-9.2h2.9v21.4h-2.9v-9.7h-12.5v9.7h-2.9V1000.1z"/>
		<path fill="#FFFFFF" d="M313.9,999.6c2.8,0,5.9,1,7.8,3.1l-1.5,2.2c-1.5-1.5-3.9-2.6-6.3-2.6c-4.7,0-8.4,3.5-8.4,8.7
			c0,5,3.7,8.6,8.4,8.6c2.5,0,5.2-1.1,6.9-2.9l1.3,2.2c-1.9,2.1-5.1,3.4-8.4,3.4c-6.3,0-11.3-4.6-11.3-11.2
			C302.6,1004.2,307.6,999.6,313.9,999.6z"/>
		<path fill="#FFFFFF" d="M327.2,1000.1h2.9v8.2h4.6c3.8,0,7.5,1.6,7.5,6.7c0,3.9-2.4,6.6-7.6,6.6h-7.5V1000.1z M334.4,1019.2
			c3.5,0,4.9-1.7,4.9-4.3c0-2.6-1.4-4.3-4.8-4.3h-4.3v8.7H334.4z"/>
		<path fill="#FFFFFF" d="M347.1,1000.1h2.9v9.1h3.4l6.4-9.1h3.4l-7.5,10.2v0.1l8.3,11.2h-3.5l-7.1-9.8H350v9.8h-2.9V1000.1z"/>
		<path fill="#FFFFFF" d="M368.2,1000.1h2.8v14.1c0,1.3-0.1,3.1-0.1,3.2h0.1c0.1-0.2,1.4-2,2.2-3.2l10.5-14.1h2.8v21.4h-2.9v-14.1
			c0-1.2,0.1-2.9,0.1-3.1h-0.1c0,0.2-1.4,1.9-2.2,3.1l-10.5,14.1h-2.8V1000.1z"/>
		<path fill="#FFFFFF" d="M393.4,1000.1h2.8v14.1c0,1.3-0.1,3.1-0.1,3.2h0.1c0.1-0.2,1.4-2,2.2-3.2l10.5-14.1h2.8v21.4h-2.9v-14.1
			c0-1.2,0.1-2.9,0.1-3.1h-0.1c0,0.2-1.4,1.9-2.2,3.1l-10.5,14.1h-2.8V1000.1z M396.9,992.2v-0.7h2.5v0.6c0,1.9,1.5,2.9,3.1,2.9
			c1.6,0,3.2-1,3.2-3v-0.6h2.5v0.7c0,3.2-2.7,5-5.6,5C399.6,997.3,396.9,995.4,396.9,992.2z"/>
		<path fill="#FFFFFF" d="M429.2,1000.1h7.8c4.3,0,7.1,1.9,7.1,5.5c0,2.2-1.2,4-3.2,4.7v0.1c2.8,0.6,4.3,2.6,4.3,5.2
			c0,3.7-2.9,6-7.8,6h-8.2V1000.1z M436.7,1009.4c2.9,0,4.4-1.4,4.4-3.7s-1.5-3.4-4.6-3.4h-4.4v7.1H436.7z M437,1019.3
			c3.5,0,5.2-1.5,5.2-3.8c0-2.5-1.9-3.9-5.2-3.9h-4.9v7.7H437z"/>
		<path fill="#FFFFFF" d="M450.3,1019c3.6-4.7,3.8-12.6,3.8-15.5v-3.5h13.3v19h3v7.6h-2.8v-5.1h-17.1v5.1h-2.8v-7.6H450.3z
			 M464.4,1019v-16.5h-7.5v1.3c0,3.2-0.3,10.4-3.5,15.2H464.4z"/>
		<path fill="#FFFFFF" d="M484.6,999.6c2.8,0,5.9,1,7.8,3.1l-1.5,2.2c-1.5-1.5-3.9-2.6-6.3-2.6c-4.7,0-8.4,3.5-8.4,8.7
			c0,5,3.7,8.6,8.4,8.6c2.5,0,5.2-1.1,6.9-2.9l1.3,2.2c-1.9,2.1-5.1,3.4-8.4,3.4c-6.3,0-11.3-4.6-11.3-11.2
			C473.3,1004.2,478.2,999.6,484.6,999.6z"/>
		<path fill="#FFFFFF" d="M497.8,1000.1h17.9v21.4h-2.9v-18.9h-12.1v18.9h-2.9V1000.1z"/>
		<path fill="#FFFFFF" d="M522.4,1018h3.5v3.5h-3.5V1018z"/>
	</g>
</g>
<g>
	<g>
		<circle fill="#FFFFFF" cx="748.2" cy="929.3" r="12.7"/>
		<circle fill="none" cx="748.2" cy="929.3" r="46.6"/>
	</g>
	<g>
		<path fill="#FFFFFF" d="M731,1128.8v-7.4h-26.5c-0.8,0-1.6,0-1.6,0v0.1c0,0,0.6,0.3,2,1.7l3.9,3.9l-1.4,1.4l-7.1-7v-2H731v-7.2
			h1.9v16.6H731z"/>
		<path fill="#FFFFFF" d="M722.2,1109.6l-21.9-16.9v-1.9h21.4v-4.8h1.9v4.8h9.3v2h-9.3v16.8H722.2z M721.7,1092.8h-15.3
			c-1.3,0-2.9-0.1-2.9-0.1v0.1c0,0,1.2,0.8,2.2,1.6l15.9,12.4h0.1V1092.8z"/>
		<path fill="#FFFFFF" d="M716.6,1080.6c-9.4,0-16.9-2.7-16.9-11c0-8.3,7.5-11,16.9-11c9.5,0,16.9,2.7,16.9,11
			C733.5,1077.9,726.1,1080.6,716.6,1080.6z M716.6,1060.7c-8.4,0-14.9,2-14.9,8.9c0,6.9,6.5,8.9,14.9,8.9c8.4,0,14.9-2,14.9-8.9
			C731.5,1062.6,725,1060.7,716.6,1060.7z"/>
		<path fill="#FFFFFF" d="M716.6,1052.1c-9.4,0-16.9-2.7-16.9-11c0-8.3,7.5-11,16.9-11c9.5,0,16.9,2.7,16.9,11
			C733.5,1049.4,726.1,1052.1,716.6,1052.1z M716.6,1032.2c-8.4,0-14.9,2-14.9,8.9c0,6.9,6.5,8.9,14.9,8.9c8.4,0,14.9-2,14.9-8.9
			C731.5,1034.1,725,1032.2,716.6,1032.2z"/>
		<path fill="#FFFFFF" d="M709.6,1010.1v-1.9l15.4-7.9c1.5-0.7,3.4-1.6,3.4-1.6v-0.1c0,0-1.9-0.8-3.4-1.6l-15.4-7.9v-1.9l23.3-1.9v2
			l-16.2,1.3c-1.1,0.1-4,0-4,0v0.1c0,0,1.3,0.5,3.4,1.5l14.3,7.3v2l-14.2,7.3c-1.9,1-3.4,1.5-3.4,1.5v0.1c0,0,2.9,0,4,0l16.2,1.3v2
			L709.6,1010.1z"/>
		<line fill="none" stroke="#FFFFFF" stroke-width="1.7653" stroke-miterlimit="10" x1="748.2" y1="929.3" x2="748.2" y2="2168"/>
	</g>
	<g>
		<path fill="#FFFFFF" d="M376,900.3h17v20.3h-2.7v-17.9h-11.5v17.9H376V900.3z"/>
		<path fill="#FFFFFF" d="M408.9,899.8c5.9,0,10.8,4.5,10.8,10.6c0,6.1-4.8,10.8-10.8,10.8c-5.9,0-10.7-4.6-10.7-10.8
			C398.2,904.4,402.9,899.8,408.9,899.8z M408.9,918.6c4.4,0,7.9-3.5,7.9-8.2c0-4.6-3.6-8.1-7.9-8.1c-4.4,0-7.9,3.5-7.9,8.1
			C401,915.2,404.5,918.6,408.9,918.6z"/>
		<path fill="#FFFFFF" d="M421.8,918.3c3.4-0.5,4.9-4.4,4.9-11.9v-6.1h12.5v20.3h-2.7v-18h-7v3.8c0,9.6-2.3,13.9-7.5,14.4V918.3z"/>
		<path fill="#FFFFFF" d="M445.4,917.3h3.3v3.4h-3.3V917.3z"/>
		<path fill="#FFFFFF" d="M465.9,892.2H482v2.5h-13.3v9.3h6.8c4.8,0,8.4,2.8,8.4,8.4c0,5-3.4,8.2-8.2,8.2h-9.8V892.2z M475.3,918.1
			c3.5,0,5.7-2.1,5.7-5.7c0-3.6-2.3-5.9-5.7-5.9h-6.6v11.6H475.3z"/>
		<path fill="#FFFFFF" d="M499.7,908.1h1.2v-0.6c0-3.9-2.1-5.3-5-5.3c-2.1,0-4.1,0.7-5.8,1.9l-1.3-2.1c1.6-1.4,4.5-2.3,7.2-2.3
			c4.9,0,7.6,2.7,7.6,7.8v13h-2.6v-2.4c0-1,0.1-1.7,0.1-1.7h-0.1c-1.1,2.5-3.6,4.6-6.9,4.6c-3.4,0-6.9-2-6.9-5.9
			C487.3,908.5,495.8,908.1,499.7,908.1z M494.7,918.8c3.9,0,6.2-4,6.2-7.6v-0.9h-1.2c-3.2,0-9.6,0.1-9.6,4.6
			C490.1,916.9,491.7,918.8,494.7,918.8z"/>
		<path fill="#FFFFFF" d="M510,900.3h2.6v2.1c0,0.9-0.1,1.6-0.1,1.6h0.1c1.3-2.6,3.9-4.2,7.1-4.2c5.5,0,8.9,4.4,8.9,10.6
			c0,6.5-3.8,10.7-9.1,10.7c-2.9,0-5.4-1.5-6.7-4h-0.1c0,0,0.1,0.7,0.1,1.8v9.9H510V900.3z M519.2,918.7c3.6,0,6.6-3,6.6-8.2
			c0-5-2.7-8.2-6.5-8.2c-3.4,0-6.6,2.4-6.6,8.2C512.7,914.6,515,918.7,519.2,918.7z"/>
		<path fill="#FFFFFF" d="M531,918.3c3.4-0.5,4.9-4.4,4.9-11.9v-6.1h12.5v20.3h-2.7v-18h-7v3.8c0,9.6-2.3,13.9-7.5,14.4V918.3z"/>
		<path fill="#FFFFFF" d="M563.6,899.8c5.6,0,8.5,4.3,8.5,9.4c0,0.4,0,0.9-0.1,1.4h-15.6c0.1,5.2,3.7,8,7.9,8c2.2,0,4.5-0.9,6.2-2.4
			l1.3,2.1c-1.9,1.7-4.9,2.8-7.5,2.8c-6.1,0-10.7-4.4-10.7-10.6C553.6,903.8,558.1,899.8,563.6,899.8z M569.3,908.4
			c-0.2-4.2-2.7-6.3-5.8-6.3c-3.4,0-6.3,2.2-7,6.3H569.3z"/>
		<path fill="#FFFFFF" d="M584.8,894.7l7.5-3.5l1,2.3l-7.8,3.6c-4.6,2.2-6.2,5.1-6.5,9.4h0.1c1.8-3.3,4.6-4.3,7.6-4.3
			c5,0,8.6,3.5,8.6,9.4c0,5.6-3.8,9.5-9.3,9.5c-6.7,0-9.6-5.1-9.6-12C576.4,902.3,578,897.8,584.8,894.7z M585.9,918.7
			c3.6,0,6.5-2.6,6.5-7.1c0-4.5-2.9-7.1-6.3-7.1c-4,0-6.7,3.1-6.7,7C579.4,916.1,582.4,918.7,585.9,918.7z"/>
		<path fill="#FFFFFF" d="M611.2,908.1h1.2v-0.6c0-3.9-2.1-5.3-5-5.3c-2.1,0-4.1,0.7-5.8,1.9l-1.3-2.1c1.6-1.4,4.5-2.3,7.2-2.3
			c4.9,0,7.6,2.7,7.6,7.8v13h-2.6v-2.4c0-1,0.1-1.7,0.1-1.7h-0.1c-1.1,2.5-3.6,4.6-6.9,4.6c-3.4,0-6.9-2-6.9-5.9
			C598.8,908.5,607.3,908.1,611.2,908.1z M606.2,918.8c3.9,0,6.2-4,6.2-7.6v-0.9h-1.2c-3.2,0-9.6,0.1-9.6,4.6
			C601.6,916.9,603.1,918.8,606.2,918.8z"/>
		<path fill="#FFFFFF" d="M621.5,900.3h2.7v17.9h8.7v-17.9h2.7v17.9h8.7v-17.9h2.7v20.3h-25.4V900.3z"/>
		<path fill="#FFFFFF" d="M653.5,900.3h2.7v8.6h3.2l6.1-8.6h3.2l-7.1,9.7v0.1l7.9,10.6h-3.4l-6.8-9.3h-3.3v9.3h-2.7V900.3z"/>
		<path fill="#FFFFFF" d="M683.9,908.1h1.2v-0.6c0-3.9-2.1-5.3-5-5.3c-2.1,0-4.1,0.7-5.8,1.9l-1.3-2.1c1.6-1.4,4.5-2.3,7.2-2.3
			c4.9,0,7.6,2.7,7.6,7.8v13h-2.6v-2.4c0-1,0.1-1.7,0.1-1.7h-0.1c-1.1,2.5-3.6,4.6-6.9,4.6c-3.4,0-6.9-2-6.9-5.9
			C671.5,908.5,680,908.1,683.9,908.1z M678.9,918.8c3.9,0,6.2-4,6.2-7.6v-0.9h-1.2c-3.2,0-9.6,0.1-9.6,4.6
			C674.3,916.9,675.8,918.8,678.9,918.8z"/>
	</g>
</g>
<g>
	<g>
		<circle fill="#FFFFFF" cx="900.3" cy="848" r="18.2"/>
		<circle fill="none" cx="900.3" cy="848" r="46.6"/>
	</g>
	<g>
		<path fill="#FFFFFF" d="M887.2,1035.6v-7.2h-25.7c-0.8,0-1.6,0-1.6,0v0.1c0,0,0.6,0.3,1.9,1.7l3.7,3.7l-1.3,1.4l-6.9-6.8v-1.9
			h29.8v-7h1.8v16.1H887.2z"/>
		<path fill="#FFFFFF" d="M883.7,1013.6c1.8-1.2,3.9-3.5,3.9-7.3c0-4.9-3.5-8.8-8.3-8.8c-4.8,0-8.3,3.8-8.3,8.8
			c0,2.1,0.7,4.5,1.9,6.1l-0.5,1.4l-15-1.8v-14.7h1.8v12.9l9.4,1.1c1.2,0.1,1.9,0.3,1.9,0.3v-0.1c-0.7-1-1.4-3.2-1.4-5.4
			c0-6,4.6-10.8,10.2-10.8c5.7,0,10.2,4.8,10.2,10.8c0,3.6-1.7,6.9-4.6,8.9L883.7,1013.6z"/>
		<path fill="#FFFFFF" d="M873.2,989.9c-9.1,0-16.3-2.6-16.3-10.6c0-8,7.2-10.6,16.3-10.6c9.2,0,16.3,2.6,16.3,10.6
			C889.5,987.3,882.3,989.9,873.2,989.9z M873.2,970.6c-8.1,0-14.4,1.9-14.4,8.6s6.3,8.6,14.4,8.6c8.2,0,14.4-1.9,14.4-8.6
			S881.3,970.6,873.2,970.6z"/>
		<path fill="#FFFFFF" d="M873.2,962.3c-9.1,0-16.3-2.6-16.3-10.6c0-8,7.2-10.6,16.3-10.6c9.2,0,16.3,2.6,16.3,10.6
			C889.5,959.6,882.3,962.3,873.2,962.3z M873.2,943c-8.1,0-14.4,1.9-14.4,8.6s6.3,8.6,14.4,8.6c8.2,0,14.4-1.9,14.4-8.6
			S881.3,943,873.2,943z"/>
		<path fill="#FFFFFF" d="M866.4,921.6v-1.8l14.9-7.6c1.4-0.7,3.3-1.5,3.3-1.5v-0.1c0,0-1.8-0.8-3.3-1.5l-14.9-7.7v-1.8l22.6-1.8
			v1.9l-15.7,1.3c-1.1,0.1-3.9,0-3.9,0v0.1c0,0,1.3,0.5,3.2,1.5l13.8,7.1v1.9l-13.7,7.1c-1.8,0.9-3.3,1.5-3.3,1.5v0.1
			c0,0,2.8,0,3.9,0l15.7,1.3v1.9L866.4,921.6z"/>
		<line fill="none" stroke="#FFFFFF" stroke-width="1.7653" stroke-miterlimit="10" x1="900.3" y1="848" x2="900.3" y2="2168"/>
	</g>
	<g>
		<path fill="#FFFFFF" d="M599.7,801.5h19.2v22.9h-3.1v-20.2h-13v20.2h-3.1V801.5z"/>
		<path fill="#FFFFFF" d="M636.8,800.9c6.7,0,12.1,5.1,12.1,11.9c0,6.9-5.4,12.1-12.1,12.1c-6.7,0-12.1-5.2-12.1-12.1
			C624.7,806,630.1,800.9,636.8,800.9z M636.8,822.1c4.9,0,8.9-3.9,8.9-9.3c0-5.2-4-9.1-8.9-9.1c-4.9,0-8.9,3.9-8.9,9.1
			C627.9,818.2,631.9,822.1,636.8,822.1z"/>
		<path fill="#FFFFFF" d="M651.3,821.8c3.8-0.6,5.5-4.9,5.5-13.4v-6.9h14v22.9h-3.1v-20.2h-7.9v4.2c0,10.9-2.6,15.7-8.5,16.2V821.8z
			"/>
		<path fill="#FFFFFF" d="M678,820.6h3.7v3.8H678V820.6z"/>
		<path fill="#FFFFFF" d="M704.6,798.8v-6.5h17.6v32.1H719v-29.2h-11.4v3.7c0,15.2-1.9,25.2-10.7,25.9v-3
			C703,821,704.6,812.5,704.6,798.8z"/>
		<path fill="#FFFFFF" d="M730.2,801.5h3v15c0,1.4-0.1,3.3-0.1,3.4h0.1c0.1-0.2,1.5-2.1,2.4-3.4l11.3-15h3v22.9h-3.1v-15.1
			c0-1.3,0.1-3.1,0.1-3.3h-0.1c0,0.2-1.5,2.1-2.3,3.3l-11.3,15.1h-3V801.5z"/>
		<path fill="#FFFFFF" d="M767.6,800.9c3,0,6.3,1,8.4,3.3l-1.6,2.3c-1.6-1.6-4.1-2.8-6.7-2.8c-5,0-8.9,3.8-8.9,9.3
			c0,5.4,3.9,9.2,9,9.2c2.6,0,5.5-1.1,7.3-3.1l1.4,2.3c-2,2.2-5.4,3.6-8.9,3.6c-6.8,0-12-4.9-12-12
			C755.6,805.9,760.9,800.9,767.6,800.9z"/>
		<path fill="#FFFFFF" d="M785,816.5c0.5-0.7,1-1.4,1-1.4v-0.1c-2.7-0.5-5.3-2.9-5.3-6.6c0-4.6,3.4-7,8.1-7h8.1v22.9h-3.1v-8.8h-4.7
			l-6,8.8h-3.6L785,816.5z M793.9,813.2v-9.3h-4.4c-3.4,0-5.5,1.3-5.5,4.6c0,3.1,2.3,4.7,5.3,4.7H793.9z"/>
		<path fill="#FFFFFF" d="M802.9,808.8v-7.3h3.1v7c0,2.4,0.7,4.8,5.2,4.8c2.6,0,4.7-1.1,5.7-1.9v-9.9h3.1v22.9h-3.1v-8.7
			c0-0.7,0.1-1.5,0.1-1.5h-0.1c-1.6,1-4.2,1.8-6.2,1.8C805.2,816,802.9,813.2,802.9,808.8z"/>
		<path fill="#FFFFFF" d="M839.2,810.3h1.4v-0.6c0-4.4-2.4-5.9-5.7-5.9c-2.3,0-4.7,0.8-6.5,2.2l-1.4-2.4c1.8-1.5,5.1-2.6,8.1-2.6
			c5.5,0,8.6,3.1,8.6,8.8v14.7h-3v-2.7c0-1.1,0.1-1.9,0.1-1.9h-0.1c-1.2,2.8-4.1,5.2-7.8,5.2c-3.9,0-7.8-2.3-7.8-6.7
			C825.3,810.7,834.9,810.3,839.2,810.3z M833.6,822.4c4.4,0,7-4.6,7-8.6v-1h-1.3c-3.6,0-10.9,0.1-10.9,5.2
			C828.4,820.1,830.2,822.4,833.6,822.4z"/>
	</g>
</g>
<g>
	<g>
		<circle fill="#FFFFFF" cx="1036.4" cy="720" r="18.2"/>
		<circle fill="none" cx="1036.4" cy="720" r="46.6"/>
	</g>
	<g>
		<path fill="#FFFFFF" d="M1022.2,988.3v-7.8h-28.1c-0.9,0-1.7,0-1.7,0v0.1c0,0,0.6,0.3,2.1,1.8l4.1,4.1l-1.4,1.5l-7.5-7.4v-2.1
			h32.5v-7.6h2v17.6H1022.2z"/>
		<path fill="#FFFFFF" d="M1021.4,963.2c0.6-1,1.2-3.1,1.2-5.1c0-8-8.3-12-15.9-12.5v0.1c2.9,1.9,4.7,5.7,4.7,9.8
			c0,6.1-4.3,10.6-11,10.6c-7.5,0-11.5-4.9-11.5-10.6c0-7.6,7.3-12.1,16.1-12.1c8.4,0,19.6,4.2,19.6,14.8c0,2-0.4,4.1-1.4,6
			L1021.4,963.2z M1002.6,945.7c-4.8,0-11.5,3.7-11.5,9.6c0,5.3,3.9,8.4,9.4,8.4c5.5,0,8.9-3.5,8.9-8.5
			C1009.5,950,1005.7,945.7,1002.6,945.7z"/>
		<path fill="#FFFFFF" d="M1018.4,935.8c2.2-2,4.3-5.5,4.3-9.3c0-4.4-3.4-8.6-8.5-8.6c-5.4,0-8.2,4.5-8.2,9.2v2.4l-1.5,0.6
			l-11.3-9.7c-0.9-0.7-1.6-1.5-1.6-1.5h-0.1c0,0,0.1,0.9,0.1,2.7v14.1h-2V916h1.5l12.9,11.1c0-4.1,2.1-11.4,10.2-11.4
			c5.9,0,10.5,5,10.5,10.9c0,4-1.9,8-4.8,10.7L1018.4,935.8z"/>
		<path fill="#FFFFFF" d="M989.1,894.6c0-2.1,0.4-4.1,1.4-6.1l1.9,1c-0.8,1.4-1.2,3.4-1.2,5.2c0,7.9,8.3,11.9,15.9,12.4V907
			c-2.9-1.9-4.7-5.7-4.7-9.8c0-6.1,4.2-10.6,11.1-10.6c7.2,0,11.3,4.9,11.3,10.6c0,7.6-7.3,12.1-16.1,12.1
			C1000.2,909.4,989.1,905.2,989.1,894.6z M1013.3,888.9c-5.6,0-9,3.5-9,8.5c0,4.8,3.1,9.6,7.3,9.6c3.4,0,11-3.1,11-9.9
			C1022.7,892.1,1018.7,888.9,1013.3,888.9z"/>
		<path fill="#FFFFFF" d="M999.5,866.2v-2l16.3-8.3c1.6-0.8,3.6-1.7,3.6-1.7v-0.1c0,0-2-0.8-3.6-1.7l-16.3-8.4v-2l24.6-2v2.1
			l-17.1,1.4c-1.2,0.1-4.2,0-4.2,0v0.1c0,0,1.4,0.5,3.5,1.6l15.1,7.7v2.1l-15,7.7c-2,1-3.6,1.6-3.6,1.6v0.1c0,0,3.1-0.1,4.2,0
			l17.1,1.4v2.1L999.5,866.2z"/>
		<line fill="none" stroke="#FFFFFF" stroke-width="1.7653" stroke-miterlimit="10" x1="1036.4" y1="720" x2="1036.4" y2="2168"/>
	</g>
	<g>
		<path fill="#FFFFFF" d="M711.7,684.4h17.9v3.5h-13.9v26.5h-4.1V684.4z"/>
		<path fill="#FFFFFF" d="M731.9,709.5h4.9v5h-4.9V709.5z"/>
		<path fill="#FFFFFF" d="M762.2,672.4h32v42h-4.1v-38.3h-23.8v38.3h-4.1V672.4z"/>
		<path fill="#FFFFFF" d="M804.7,672.4h4.4v5.1h-4.4V672.4z M804.8,684.4h4.1v30.1h-4.1V684.4z"/>
		<path fill="#FFFFFF" d="M818.6,684.4h25.2v30.1h-4.1V688h-17v26.5h-4.1V684.4z"/>
		<path fill="#FFFFFF" d="M853,695.6h17v3.7h-17V695.6z"/>
		<path fill="#FFFFFF" d="M880.5,672.4h4.1v42h-4.1V672.4z"/>
		<path fill="#FFFFFF" d="M895.1,684.4H906c6.1,0,9.9,2.7,9.9,7.7c0,3.1-1.6,5.6-4.5,6.6v0.1c3.9,0.8,6.1,3.7,6.1,7.2
			c0,5.2-4.1,8.4-10.9,8.4h-11.5V684.4z M905.6,697.4c4.1,0,6.2-1.9,6.2-5.1c0-3.2-2.2-4.8-6.4-4.8h-6.2v9.9H905.6z M906,711.3
			c5,0,7.2-2.1,7.2-5.3c0-3.5-2.6-5.4-7.3-5.4h-6.8v10.8H906z"/>
		<path fill="#FFFFFF" d="M940.8,695.9h1.8v-0.8c0-5.8-3.2-7.8-7.4-7.8c-3,0-6.1,1.1-8.5,2.9l-1.9-3.1c2.4-2,6.6-3.4,10.6-3.4
			c7.2,0,11.2,4,11.2,11.5v19.2h-3.9v-3.5c0-1.5,0.2-2.5,0.2-2.5h-0.1c-1.6,3.6-5.3,6.8-10.2,6.8c-5.1,0-10.2-3-10.2-8.8
			C922.5,696.5,935.1,695.9,940.8,695.9z M933.4,711.8c5.8,0,9.2-6,9.2-11.2v-1.4h-1.7c-4.7,0-14.2,0.2-14.2,6.9
			C926.7,708.8,928.9,711.8,933.4,711.8z"/>
		<path fill="#FFFFFF" d="M956.1,684.4h4.1v12.9h17.6v-12.9h4.1v30.1h-4.1v-13.6h-17.6v13.6h-4.1V684.4z"/>
	</g>
</g>
<g>
	<g>
		<circle fill="#FFFFFF" cx="1186.2" cy="837.8" r="12.7"/>
		<circle fill="none" cx="1186.2" cy="837.8" r="46.6"/>
	</g>
	<g>
		<path fill="#FFFFFF" d="M1172.5,1022.2v-7.2h-25.7c-0.8,0-1.6,0-1.6,0v0.1c0,0,0.6,0.3,1.9,1.7l3.7,3.7l-1.3,1.4l-6.9-6.8v-1.9
			h29.7v-7h1.8v16.1H1172.5z"/>
		<path fill="#FFFFFF" d="M1142.3,988.4c0-1.9,0.4-3.8,1.3-5.5l1.8,0.9c-0.7,1.3-1.1,3.1-1.1,4.7c0,7.2,7.6,10.9,14.5,11.4v-0.1
			c-2.7-1.8-4.3-5.2-4.3-8.9c0-5.5,3.8-9.7,10.2-9.7c6.6,0,10.4,4.5,10.4,9.7c0,7-6.7,11-14.7,11
			C1152.4,1001.9,1142.3,998,1142.3,988.4z M1164.4,983.2c-5.1,0-8.2,3.2-8.2,7.8c0,4.4,2.8,8.7,6.7,8.7c3.1,0,10-2.8,10-9.1
			C1173,986.1,1169.4,983.2,1164.4,983.2z"/>
		<path fill="#FFFFFF" d="M1158.6,975.4c-9.1,0-16.3-2.6-16.3-10.6c0-8,7.2-10.6,16.3-10.6c9.1,0,16.3,2.6,16.3,10.6
			C1174.9,972.8,1167.7,975.4,1158.6,975.4z M1158.6,956.2c-8.1,0-14.4,1.9-14.4,8.6c0,6.7,6.3,8.6,14.4,8.6
			c8.2,0,14.4-1.9,14.4-8.6C1173,958.1,1166.7,956.2,1158.6,956.2z"/>
		<path fill="#FFFFFF" d="M1158.6,947.8c-9.1,0-16.3-2.6-16.3-10.6c0-8,7.2-10.6,16.3-10.6c9.1,0,16.3,2.6,16.3,10.6
			C1174.9,945.2,1167.7,947.8,1158.6,947.8z M1158.6,928.6c-8.1,0-14.4,1.9-14.4,8.6c0,6.7,6.3,8.6,14.4,8.6
			c8.2,0,14.4-1.9,14.4-8.6C1173,930.5,1166.7,928.6,1158.6,928.6z"/>
		<path fill="#FFFFFF" d="M1151.8,907.2v-1.8l14.9-7.6c1.4-0.7,3.3-1.5,3.3-1.5v-0.1c0,0-1.8-0.8-3.3-1.5l-14.9-7.7v-1.8l22.5-1.8
			v1.9l-15.6,1.3c-1.1,0.1-3.9,0-3.9,0v0.1c0,0,1.3,0.5,3.2,1.5l13.8,7.1v1.9l-13.7,7.1c-1.8,0.9-3.3,1.5-3.3,1.5v0.1
			c0,0,2.8,0,3.9,0l15.6,1.3v1.9L1151.8,907.2z"/>
		<line fill="none" stroke="#FFFFFF" stroke-width="1.7653" stroke-miterlimit="10" x1="1186.2" y1="837.8" x2="1186.2" y2="2168"/>
	</g>
	<g>
		<path fill="#FFFFFF" d="M1250.6,807.2c7.6,0,13.7,5.8,13.7,13.4c0,7.8-6.1,13.7-13.7,13.7c-7.5,0-13.6-5.9-13.6-13.7
			C1237,812.9,1243.1,807.2,1250.6,807.2z M1250.6,831.1c5.5,0,10.1-4.4,10.1-10.5c0-5.9-4.5-10.3-10.1-10.3c-5.5,0-10,4.4-10,10.3
			C1240.6,826.7,1245.1,831.1,1250.6,831.1z"/>
		<path fill="#FFFFFF" d="M1269.4,828.1c1,1.1,3.4,3.2,6.9,3.2c3.1,0,6.2-1.6,6.2-5c0-2.9-2.2-4.6-6.3-4.6h-3.1v-2.8h2.7
			c3.5,0,5.8-1.4,5.8-4.4c0-2.9-2.2-4.4-5.3-4.4c-2.5,0-4.6,0.9-6.3,2.3l-1.5-2.5c1.8-1.5,4.6-2.8,8.4-2.8c4.8,0,8.4,2.3,8.4,6.9
			c0,3.2-1.7,5-4,5.9v0.1c2.8,0.7,4.9,2.8,4.9,6.2c0,5.2-4.6,7.9-9.6,7.9c-4.1,0-7.1-1.9-9-3.7L1269.4,828.1z"/>
		<path fill="#FFFFFF" d="M1292.3,829.4h4.2v4.3h-4.2V829.4z"/>
		<path fill="#FFFFFF" d="M1318.4,797.5h3.5v15.7h6.1l9.8-15.7h4.1l-10.8,17v0.1l11.6,18.9h-4.2l-10.4-17.3h-6.1v17.3h-3.5V797.5z"
			/>
		<path fill="#FFFFFF" d="M1347.3,807.8h3.3v2.7c0,1.1-0.2,2-0.2,2h0.1c1.6-3.3,5-5.3,9-5.3c7,0,11.2,5.5,11.2,13.5
			c0,8.2-4.8,13.6-11.6,13.6c-3.6,0-6.8-1.9-8.5-5.1h-0.1c0,0,0.2,0.9,0.2,2.3v12.5h-3.5V807.8z M1358.9,831.1
			c4.6,0,8.4-3.8,8.4-10.4c0-6.3-3.4-10.4-8.2-10.4c-4.3,0-8.4,3.1-8.4,10.4C1350.7,826,1353.7,831.1,1358.9,831.1z"/>
		<path fill="#FFFFFF" d="M1377.6,807.8h3.4v16.9c0,1.6-0.1,3.7-0.2,3.9h0.1c0.1-0.2,1.6-2.4,2.7-3.9l12.7-16.9h3.3v25.8h-3.4v-17
			c0-1.5,0.2-3.5,0.2-3.7h-0.1c-0.1,0.3-1.6,2.3-2.6,3.7l-12.7,17h-3.3V807.8z"/>
		<path fill="#FFFFFF" d="M1407.9,807.8h9.3c5.2,0,8.5,2.3,8.5,6.6c0,2.7-1.4,4.8-3.9,5.7v0.1c3.3,0.7,5.2,3.2,5.2,6.2
			c0,4.5-3.5,7.2-9.3,7.2h-9.9V807.8z M1416.9,819c3.5,0,5.3-1.6,5.3-4.4s-1.8-4.1-5.5-4.1h-5.3v8.5H1416.9z M1417.3,830.9
			c4.3,0,6.2-1.8,6.2-4.6c0-3-2.3-4.7-6.3-4.7h-5.9v9.2H1417.3z"/>
		<path fill="#FFFFFF" d="M1447.2,817.7h1.5V817c0-5-2.7-6.7-6.4-6.7c-2.6,0-5.2,0.9-7.3,2.5l-1.6-2.7c2.1-1.7,5.7-2.9,9.1-2.9
			c6.2,0,9.7,3.4,9.7,9.9v16.5h-3.3v-3c0-1.3,0.2-2.2,0.2-2.2h-0.1c-1.3,3.1-4.6,5.8-8.7,5.8c-4.4,0-8.7-2.6-8.7-7.5
			C1431.5,818.2,1442.3,817.7,1447.2,817.7z M1440.9,831.3c5,0,7.9-5.1,7.9-9.7v-1.2h-1.5c-4,0-12.2,0.2-12.2,5.9
			C1435.1,828.8,1437,831.3,1440.9,831.3z"/>
		<path fill="#FFFFFF" d="M1460.3,807.8h9.3c5.2,0,8.5,2.3,8.5,6.6c0,2.7-1.4,4.8-3.9,5.7v0.1c3.3,0.7,5.2,3.2,5.2,6.2
			c0,4.5-3.5,7.2-9.3,7.2h-9.9V807.8z M1469.3,819c3.5,0,5.3-1.6,5.3-4.4s-1.8-4.1-5.5-4.1h-5.3v8.5H1469.3z M1469.7,830.9
			c4.3,0,6.2-1.8,6.2-4.6c0-3-2.3-4.7-6.3-4.7h-5.9v9.2H1469.7z"/>
		<path fill="#FFFFFF" d="M1497.2,807.2c7.1,0,10.8,5.5,10.8,11.9c0,0.6-0.1,1.2-0.1,1.7h-19.8c0.2,6.6,4.7,10.2,10,10.2
			c2.8,0,5.8-1.2,7.9-3.1l1.6,2.7c-2.4,2.2-6.2,3.6-9.6,3.6c-7.7,0-13.6-5.5-13.6-13.5C1484.4,812.3,1490.2,807.2,1497.2,807.2z
			 M1504.5,818.1c-0.2-5.4-3.5-8-7.3-8c-4.3,0-8.1,2.8-8.9,8H1504.5z"/>
	</g>
</g>
</svg>
